#N canvas 0 22 450 300 10;
#X obj 59 88 inlet;
#X obj 112 88 inlet;
#X text 68 46 beats;
#X text 118 49 divisions;
#X obj 60 152 * \$1;
#X text 199 48 tempo;
#X obj 59 186 + 0;
#X obj 194 85 inlet;
#X text 173 11 argument 1 is number of divisions per beat;
#X text 173 27 argument 2 is tempo in bpm;
#X obj 189 144 f \$2;
#X obj 244 96 loadbang;
#X obj 189 176 * \$1;
#X obj 60 228 /;
#X obj 60 257 * 60000;
#X obj 59 279 outlet;
#X obj 57 119 f 0;
#X obj 102 125 t b f;
#X connect 0 0 16 0;
#X connect 1 0 17 0;
#X connect 4 0 6 0;
#X connect 6 0 13 0;
#X connect 7 0 10 0;
#X connect 10 0 12 0;
#X connect 11 0 10 0;
#X connect 12 0 13 1;
#X connect 13 0 14 0;
#X connect 14 0 15 0;
#X connect 16 0 4 0;
#X connect 17 0 16 0;
#X connect 17 1 6 1;
