#N canvas 462 22 730 690 10;
#X text 43 47 keep in mind that the counter goes from 0 to (number-of-divisions
- 1);
#X obj 477 229 bpm2ms;
#X text 42 11 arguments: name \, number of divisions per quarter \,
starting-tempo (default 1 \, 24 \, 120 respectively);
#X obj 477 134 f \$3;
#X text 463 375 period of 1 qn in ms;
#X obj 444 343 f;
#X obj 228 451 metro 200;
#X obj 313 72 loadbang;
#X obj 283 398 /;
#X obj 332 143 f \$2;
#X obj 234 471 - 1;
#X msg 234 491 max \$1;
#X obj 492 22 inlet;
#X obj 444 70 t b f;
#N canvas 45 220 450 300 div-default 0;
#X obj 21 31 inlet;
#X obj 19 73 t f f;
#X obj 16 105 == 0;
#X obj 13 134 sel 1;
#X obj 61 211 outlet;
#X msg 13 166 24;
#X connect 0 0 1 0;
#X connect 1 0 2 0;
#X connect 1 1 4 0;
#X connect 2 0 3 0;
#X connect 3 0 5 0;
#X connect 5 0 4 0;
#X restore 333 183 pd div-default;
#N canvas 13 198 450 300 tempo-default 0;
#X obj 73 126 == 0;
#X obj 73 149 sel 1;
#X obj 117 87 t f f;
#X msg 73 172 120;
#X obj 87 43 inlet;
#X obj 84 232 outlet;
#X connect 0 0 1 0;
#X connect 1 0 3 0;
#X connect 2 0 0 0;
#X connect 2 1 5 0;
#X connect 3 0 5 0;
#X connect 4 0 2 0;
#X restore 477 194 pd tempo-default;
#X obj 431 22 inlet;
#X obj 378 23 inlet;
#X text 378 6 toggle;
#X text 429 5 num divs;
#X text 492 3 tempo (bpm);
#X obj 373 657 outlet;
#X obj 172 478 t b b;
#X obj 373 601 t f f;
#X obj 218 639 outlet;
#X obj 237 620 send \$1-div-count;
#X obj 89 604 outlet;
#X obj 121 572 send \$1-pulse;
#X obj 89 542 t b b;
#X obj 257 559 %;
#X obj 333 212 t b f f f;
#X obj 218 536 t f f f;
#X obj 258 584 sel 0;
#X obj 218 511 counter 0 23;
#X obj 326 574 counter;
#X msg 396 517 min 0;
#X obj 313 95 t b b b b;
#X obj 357 444 t b b;
#X msg 357 467 goto 0;
#X text 406 487 otherwise counter starts at 1;
#X obj 400 633 send \$1-beat-count;
#X obj 51 148 r control-bus;
#X obj 480 282 t f f;
#X obj 537 227 f;
#X obj 51 189 t b;
#X obj 134 231 f;
#X obj 138 188 t b;
#X obj 112 262 pack 0 \$1;
#X msg 94 304 \; control-bus \$2-num-divs \$1;
#X obj 535 255 pack 0 \$1;
#X msg 544 284 \; control-bus \$2-tempo \$1;
#X obj 583 21 inlet;
#X text 584 2 tempo scale;
#X obj 296 419 / 1;
#X obj 51 168 route \$1-poll-tempo \$1-poll-num-divs;
#X obj 376 305 t b f;
#X connect 1 0 42 0;
#X connect 3 0 15 0;
#X connect 5 0 8 0;
#X connect 6 0 22 0;
#X connect 7 0 36 0;
#X connect 8 0 53 0;
#X connect 9 0 14 0;
#X connect 9 0 45 1;
#X connect 10 0 11 0;
#X connect 11 0 33 0;
#X connect 12 0 13 0;
#X connect 13 0 5 0;
#X connect 13 1 3 0;
#X connect 14 0 30 0;
#X connect 15 0 1 0;
#X connect 15 0 43 1;
#X connect 16 0 9 0;
#X connect 17 0 6 0;
#X connect 22 0 28 0;
#X connect 22 1 33 0;
#X connect 23 0 21 0;
#X connect 23 1 40 0;
#X connect 28 0 26 0;
#X connect 28 1 27 0;
#X connect 29 0 32 0;
#X connect 30 0 5 0;
#X connect 30 1 8 1;
#X connect 30 2 10 0;
#X connect 30 3 29 1;
#X connect 31 0 24 0;
#X connect 31 1 25 0;
#X connect 31 2 29 0;
#X connect 32 0 34 0;
#X connect 33 0 31 0;
#X connect 34 0 23 0;
#X connect 35 0 34 0;
#X connect 36 1 9 0;
#X connect 36 2 3 0;
#X connect 36 3 37 0;
#X connect 37 0 38 0;
#X connect 37 1 35 0;
#X connect 38 0 33 0;
#X connect 38 0 34 0;
#X connect 41 0 54 0;
#X connect 42 0 5 1;
#X connect 43 0 49 0;
#X connect 44 0 43 0;
#X connect 45 0 47 0;
#X connect 46 0 45 0;
#X connect 47 0 48 0;
#X connect 49 0 50 0;
#X connect 51 0 55 0;
#X connect 53 0 6 1;
#X connect 54 0 44 0;
#X connect 54 1 46 0;
#X connect 55 0 5 0;
#X connect 55 1 53 1;
