#N canvas 0 22 450 300 10;
#X obj 110 34 inlet;
#X obj 119 182 outlet;
#X msg 105 106 60000;
#X obj 149 73 t b f;
#X obj 118 149 /;
#X connect 0 0 3 0;
#X connect 2 0 4 0;
#X connect 3 0 2 0;
#X connect 3 1 4 1;
#X connect 4 0 1 0;
