#N canvas 473 23 454 555 10;
#X obj 24 409 ne.groove~;
#X obj 27 34 inlet;
#X obj 24 103 gate 2;
#X obj 24 474 *~;
#X obj 146 430 Line~;
#X msg 145 390 0 \, \$1 \$2 \$1 \$3 0 \$4;
#X obj 24 185 unpack s f f f f f f f;
#X obj 24 227 pack s f;
#X obj 24 247 prepend set;
#X obj 146 300 -;
#X obj 146 330 -;
#X obj 136 361 pack f f f f;
#X obj 154 212 t f f;
#X obj 141 236 t f f;
#X msg 39 370 rate \$1;
#X obj 125 276 expr pow(2 \, $f1/6);
#X msg 37 317 start-phase \$1;
#X obj 24 130 t a b;
#X msg 81 150 2;
#X msg 370 227 1;
#X obj 77 130 outlet;
#X obj 25 515 throw~ \$1;
#X text 86 21 accepts messge: buffer length-buffer phase (0-1) gain
(db) rate length-envelope (ms) attack (ms) decay (ms);
#X obj 97 60 loadbang;
#X msg 96 79 1;
#X connect 0 0 3 0;
#X connect 1 0 2 1;
#X connect 2 0 17 0;
#X connect 2 1 20 0;
#X connect 3 0 21 0;
#X connect 4 0 3 1;
#X connect 4 1 19 0;
#X connect 5 0 4 0;
#X connect 6 0 7 0;
#X connect 6 1 7 1;
#X connect 6 2 16 0;
#X connect 6 3 15 0;
#X connect 6 4 14 0;
#X connect 6 5 9 0;
#X connect 6 6 13 0;
#X connect 6 7 12 0;
#X connect 7 0 8 0;
#X connect 8 0 0 0;
#X connect 9 0 10 0;
#X connect 10 0 11 2;
#X connect 11 0 5 0;
#X connect 12 0 10 1;
#X connect 12 1 11 3;
#X connect 13 0 9 1;
#X connect 13 1 11 1;
#X connect 14 0 0 0;
#X connect 15 0 11 0;
#X connect 16 0 0 0;
#X connect 17 0 6 0;
#X connect 17 1 18 0;
#X connect 18 0 2 0;
#X connect 19 0 2 0;
#X connect 23 0 24 0;
#X connect 24 0 2 0;
