#N canvas 0 22 667 618 10;
#X obj 13 5 inlet;
#X obj 36 208 / 10000;
#X obj 33 244 phasor~;
#X obj 33 276 -~ 0.5;
#X obj 31 300 *~ 10000;
#X obj 197 219 * 1e+06;
#X text 255 220 this has to be length of sound that we play;
#X obj 194 244 t b f;
#X msg 192 271 0;
#X obj 274 274 loadbang;
#X msg 271 294 1;
#X obj 270 348 snapshot~;
#X obj 356 352 t f b;
#X obj 382 376 samplerate~;
#X obj 357 399 /;
#X obj 354 422 * 10000;
#X obj 329 449 +;
#X obj 182 392 t f f;
#X obj 208 414 +;
#X obj 251 414 f;
#X obj 209 442 t f b;
#X obj 208 473 -;
#X obj 238 473 f;
#X obj 187 495 -;
#X obj 158 522 / 10000;
#X obj 155 543 + 0.5;
#X obj 33 416 tabread4~;
#X obj 58 119 unpack s f;
#X obj 62 379 prepend set;
#X obj 115 152 t f f;
#X obj 193 195 / 1e+06;
#X obj 14 73 t f b;
#X obj 36 98 samplerate~;
#X obj 14 124 *;
#X text 245 16 rate takes float meaning samples/sample-period \, set
takes buffer-name and length \, start takes start point in samples
\, start-ms in milliseconds;
#X obj 208 80 t f b;
#X obj 230 105 samplerate~;
#X obj 208 131 /;
#X obj 205 155 * 1000;
#X obj 13 30 route rate set start start-ms start-phase;
#X obj 33 449 outlet~;
#X obj 271 316 metro 50;
#X connect 0 0 39 0;
#X connect 1 0 2 0;
#X connect 1 0 12 0;
#X connect 2 0 3 0;
#X connect 3 0 4 0;
#X connect 4 0 11 0;
#X connect 4 0 26 0;
#X connect 5 0 7 0;
#X connect 7 0 8 0;
#X connect 7 1 22 1;
#X connect 7 1 18 1;
#X connect 8 0 17 0;
#X connect 9 0 10 0;
#X connect 10 0 41 0;
#X connect 11 0 16 0;
#X connect 12 0 14 0;
#X connect 12 1 13 0;
#X connect 13 0 14 1;
#X connect 14 0 15 0;
#X connect 15 0 16 1;
#X connect 16 0 17 0;
#X connect 17 0 23 0;
#X connect 17 1 18 0;
#X connect 18 0 19 0;
#X connect 18 0 20 0;
#X connect 18 0 26 1;
#X connect 19 0 18 1;
#X connect 20 0 22 1;
#X connect 20 0 21 0;
#X connect 20 1 22 0;
#X connect 21 0 23 1;
#X connect 22 0 21 1;
#X connect 23 0 24 0;
#X connect 24 0 25 0;
#X connect 25 0 2 1;
#X connect 26 0 40 0;
#X connect 27 0 28 0;
#X connect 27 1 29 0;
#X connect 28 0 26 0;
#X connect 29 0 5 1;
#X connect 29 1 30 1;
#X connect 30 0 5 0;
#X connect 31 0 33 0;
#X connect 31 1 32 0;
#X connect 32 0 33 1;
#X connect 33 0 1 0;
#X connect 35 0 37 0;
#X connect 35 1 36 0;
#X connect 36 0 37 1;
#X connect 37 0 38 0;
#X connect 38 0 30 0;
#X connect 39 0 31 0;
#X connect 39 1 27 0;
#X connect 39 2 30 0;
#X connect 39 3 35 0;
#X connect 39 4 5 0;
#X connect 41 0 11 0;
