#N canvas 216 36 630 706 10;
#X obj 15 574 ne.groove~;
#X obj 27 34 inlet;
#X obj 24 103 gate 2;
#X obj 15 619 *~;
#X obj 370 579 Line~;
#X msg 369 539 0 \, \$1 \$2 \$1 \$3 0 \$4;
#X obj 24 185 unpack s f f f f f f f;
#X obj 14 252 pack s f;
#X obj 14 272 prepend set;
#X obj 370 449 -;
#X obj 370 479 -;
#X obj 360 510 pack f f f f;
#X obj 378 361 t f f;
#X obj 365 385 t f f;
#X msg 97 532 rate \$1;
#X obj 349 425 expr pow(2 \, $f1/6);
#X msg 38 482 start-phase \$1;
#X obj 24 130 t a b;
#X msg 81 150 2;
#X msg 474 302 1;
#X obj 77 130 outlet;
#X obj 15 660 throw~ \$1;
#X obj 97 60 loadbang;
#X msg 96 79 1;
#X obj 326 383 f;
#N canvas 632 152 603 468 length-env-calc 1;
#X obj 20 20 inlet;
#X text 27 2 length-buffer;
#X obj 162 26 inlet;
#X text 165 11 phase;
#X obj 265 27 inlet;
#X text 261 12 length-envelope;
#X obj 41 179 *;
#X text 69 178 start-point-samps;
#X obj 42 251 +;
#X obj 42 272 >;
#X obj 41 298 sel 0 1;
#X text 211 266 if (start-point-samps + length-envelope > length-buffer)
return length-buffer - start-point \; else return length-envelope;
#X obj 42 209 t f f;
#X obj 193 339 f;
#X obj 57 119 t f f f;
#X obj 193 404 outlet;
#X obj 193 370 -;
#X obj 42 341 f;
#X obj 239 54 t f f;
#X text 215 308 QED: We shouldn't use pd;
#X text 62 43 convert to ms;
#X obj 27 59 samples2ms~;
#X connect 0 0 21 0;
#X connect 2 0 6 1;
#X connect 4 0 18 0;
#X connect 6 0 12 0;
#X connect 8 0 9 0;
#X connect 9 0 10 0;
#X connect 10 0 17 0;
#X connect 10 1 13 0;
#X connect 12 0 8 0;
#X connect 12 1 16 1;
#X connect 13 0 16 0;
#X connect 14 0 6 0;
#X connect 14 1 9 1;
#X connect 14 2 13 1;
#X connect 16 0 15 0;
#X connect 17 0 15 0;
#X connect 18 0 8 1;
#X connect 18 1 17 1;
#X connect 21 0 14 0;
#X restore 167 399 pd length-env-calc;
#X obj 166 322 t f f;
#X obj 54 221 t f f;
#X obj 17 307 t b a;
#X obj 203 451 print length-env-calc;
#X text 86 21 accepts messge: buffer length-buffer (samples) phase
(0-1) gain (db) rate length-envelope (ms) attack (ms) decay (ms);
#X connect 0 0 3 0;
#X connect 1 0 2 1;
#X connect 2 0 17 0;
#X connect 2 1 20 0;
#X connect 3 0 21 0;
#X connect 4 0 3 1;
#X connect 4 1 19 0;
#X connect 5 0 4 0;
#X connect 6 0 7 0;
#X connect 6 1 27 0;
#X connect 6 2 26 0;
#X connect 6 3 24 1;
#X connect 6 4 14 0;
#X connect 6 5 25 2;
#X connect 6 6 13 0;
#X connect 6 7 12 0;
#X connect 7 0 8 0;
#X connect 8 0 28 0;
#X connect 9 0 10 0;
#X connect 10 0 11 2;
#X connect 11 0 5 0;
#X connect 12 0 10 1;
#X connect 12 1 11 3;
#X connect 13 0 9 1;
#X connect 13 1 11 1;
#X connect 14 0 0 0;
#X connect 15 0 11 0;
#X connect 16 0 0 0;
#X connect 17 0 6 0;
#X connect 17 1 18 0;
#X connect 18 0 2 0;
#X connect 19 0 2 0;
#X connect 22 0 23 0;
#X connect 23 0 2 0;
#X connect 24 0 15 0;
#X connect 25 0 9 0;
#X connect 25 0 29 0;
#X connect 26 0 16 0;
#X connect 26 1 25 1;
#X connect 27 0 7 1;
#X connect 27 1 25 0;
#X connect 28 0 24 0;
#X connect 28 1 0 0;
