#N canvas 696 238 318 349 10;
#N canvas 205 220 450 300 message-collector 0;
#X obj 40 207 textfile;
#X obj 40 82 prepend add;
#X obj 167 91 t f f;
#X obj 194 115 == 1;
#X obj 164 152 gate;
#X obj 164 173 t b b;
#X msg 289 138 0;
#X msg 63 132 rewind;
#X obj 169 219 t b b;
#X msg 76 178 clear;
#X obj 167 46 t b b;
#X msg 168 71 1;
#X obj 39 30 inlet;
#X obj 160 21 inlet;
#X obj 41 261 outlet;
#X connect 0 0 14 0;
#X connect 0 1 8 0;
#X connect 1 0 0 0;
#X connect 2 0 4 1;
#X connect 2 1 3 0;
#X connect 3 0 4 0;
#X connect 4 0 5 0;
#X connect 5 0 4 1;
#X connect 5 1 0 0;
#X connect 6 0 2 0;
#X connect 7 0 0 0;
#X connect 8 0 9 0;
#X connect 8 1 6 0;
#X connect 9 0 0 0;
#X connect 10 0 11 0;
#X connect 10 1 7 0;
#X connect 11 0 2 0;
#X connect 12 0 1 0;
#X connect 13 0 10 0;
#X restore 43 233 pd message-collector;
#X obj 87 149 t b;
#X obj 31 40 inlet;
#X obj 46 262 outlet;
#X obj 33 82 route \$1;
#X obj 35 118 route qd-store qd-output;
#X connect 0 0 3 0;
#X connect 1 0 0 1;
#X connect 2 0 4 0;
#X connect 4 0 5 0;
#X connect 5 0 0 0;
#X connect 5 1 1 0;
