#N canvas 9 22 457 687 10;
#X obj 45 211 inlet;
#X obj 45 269 zl slice 1;
#X obj 181 243 r \$1;
#X text 175 222 current-clock;
#X obj 98 429 /;
#X obj 78 407 %;
#X obj 51 362 f;
#X obj 61 386 + 1;
#X obj 98 460 > 0.5;
#X obj 238 533 zl reg;
#X obj 98 507 sel 0 1;
#N canvas 555 137 450 300 storage 0;
#X obj 224 22 inlet;
#X obj 216 173 outlet;
#X restore 268 635 pd storage;
#X text 13 6 This is different from quantizer. It needs a hi-res clock
to run \, like quantizer but it instead accepts the quantization division
as the first item in a message to its inlet. If the message is early
(that means more than half-way to the next quantization point) then
the message is delayed an played exactly at this point. If the message
is late (less than half-way to the next quantization point) then the
message is played at the next hi-res clock point. In both cases the
lateness of the message is outputted out the first outlet: if the message
is early \, the value is negative. Argument 2 is the maximum number
of hi-res divisions you can have.;
#N canvas 39 33 455 390 make-storage 0;
#X obj 144 114 s pd-storage;
#X obj 164 -79 * 20;
#X obj 144 -20 pack;
#X msg 144 21 obj 10 \$2 quant-delay-storage \$1;
#X obj 79 -102 t f f f;
#X obj 81 1 t f f;
#X obj 64 -244 t b b b b;
#X obj 80 -38 + 1;
#X msg 80 57 connect 0 0 \$1 0;
#X msg 102 81 connect \$1 0 1 0;
#X obj 28 -75 t b f;
#X msg 24 -11 dirty 0;
#X obj 64 -268 loadbang;
#X obj 57 -146 uzi;
#X obj 165 -261 f \$2;
#X obj 162 -232 sel 0;
#X obj 52 -176 gate 1 1;
#X msg 100 -210 0;
#X obj 118 -65 - 1;
#X connect 1 0 2 1;
#X connect 2 0 3 0;
#X connect 3 0 0 0;
#X connect 4 0 10 0;
#X connect 4 1 18 0;
#X connect 4 2 1 0;
#X connect 5 0 8 0;
#X connect 5 1 9 0;
#X connect 6 0 16 1;
#X connect 6 3 14 0;
#X connect 7 0 5 0;
#X connect 8 0 0 0;
#X connect 9 0 0 0;
#X connect 10 0 11 0;
#X connect 10 1 7 0;
#X connect 11 0 0 0;
#X connect 12 0 6 0;
#X connect 13 2 4 0;
#X connect 14 0 15 0;
#X connect 15 0 17 0;
#X connect 15 1 13 1;
#X connect 16 0 13 0;
#X connect 17 0 16 0;
#X connect 18 0 2 0;
#X restore 320 190 pd make-storage;
#N canvas 417 242 469 378 early-storage 0;
#X obj 83 34 inlet;
#X obj 179 40 inlet;
#X text 223 39 current-clock;
#X obj 179 86 + 1;
#X obj 126 160 f;
#X obj 102 195 /;
#X obj 102 249 + 1;
#X obj 86 279 *;
#X obj 85 303 % \$2;
#X obj 86 355 outlet;
#X obj 102 219 int;
#X obj 167 120 t f f;
#X obj 164 174 f;
#X obj 192 203 %;
#X obj 222 236 -;
#X obj 83 98 t f b f b f f;
#X obj 86 330 pack;
#X connect 0 0 15 0;
#X connect 1 0 3 0;
#X connect 3 0 11 0;
#X connect 4 0 5 0;
#X connect 5 0 10 0;
#X connect 6 0 7 1;
#X connect 7 0 8 0;
#X connect 8 0 16 0;
#X connect 10 0 6 0;
#X connect 11 0 4 1;
#X connect 11 1 12 1;
#X connect 12 0 13 0;
#X connect 13 0 14 0;
#X connect 14 0 16 1;
#X connect 15 0 7 0;
#X connect 15 1 4 0;
#X connect 15 2 5 1;
#X connect 15 3 12 0;
#X connect 15 4 13 1;
#X connect 15 5 14 1;
#X connect 16 0 9 0;
#X restore 17 569 pd early-storage;
#X obj 16 540 f;
#N canvas 489 294 450 300 late-storage 0;
#X obj 176 34 inlet;
#X text 222 36 current-clock;
#X obj 61 27 inlet;
#X obj 60 230 outlet;
#X obj 61 116 f;
#X obj 147 62 + 1;
#X obj 60 144 % \$2;
#X obj 60 210 pack;
#X obj 125 96 t f f;
#X obj 81 190 %;
#X obj 82 169 f;
#X obj 61 69 t b b f;
#X connect 0 0 5 0;
#X connect 2 0 11 0;
#X connect 4 0 6 0;
#X connect 5 0 8 0;
#X connect 6 0 7 0;
#X connect 7 0 3 0;
#X connect 8 0 4 1;
#X connect 8 1 10 1;
#X connect 9 0 7 1;
#X connect 10 0 9 0;
#X connect 11 0 4 0;
#X connect 11 1 10 0;
#X connect 11 2 9 1;
#X restore 132 570 pd late-storage;
#X obj 98 483 t f b;
#X obj 149 278 t f f f f;
#X obj 265 662 outlet;
#X msg 269 583 \$1 qd-output;
#X obj 44 296 t f f f f;
#X msg 19 630 \$1 qd-store \$2;
#X obj 12 322 t b f f;
#X obj 132 546 f;
#X obj 148 661 zl join;
#X obj 149 600 loadbang;
#X msg 144 622 mode join;
#X text 12 169 TODO: This doesn't work if the quantization value is
equal to the number of divisions in a beat!;
#X connect 0 0 1 0;
#X connect 1 0 21 0;
#X connect 1 1 9 1;
#X connect 2 0 18 0;
#X connect 4 0 8 0;
#X connect 5 0 4 0;
#X connect 6 0 7 0;
#X connect 7 0 5 0;
#X connect 8 0 17 0;
#X connect 9 0 25 1;
#X connect 10 0 24 0;
#X connect 10 1 15 0;
#X connect 11 0 19 0;
#X connect 14 0 22 0;
#X connect 15 0 14 0;
#X connect 16 0 22 0;
#X connect 17 0 10 0;
#X connect 17 1 9 0;
#X connect 18 0 6 1;
#X connect 18 1 14 1;
#X connect 18 2 16 1;
#X connect 18 3 20 0;
#X connect 20 0 11 0;
#X connect 21 0 23 0;
#X connect 21 1 5 1;
#X connect 21 2 4 1;
#X connect 22 0 25 0;
#X connect 23 0 6 0;
#X connect 23 1 15 1;
#X connect 23 2 24 1;
#X connect 24 0 16 0;
#X connect 25 0 11 0;
#X connect 26 0 27 0;
#X connect 27 0 25 0;
