#N canvas 567 144 564 470 10;
#N canvas 142 217 450 300 help 0;
#X text 19 12 Records into one of two buffers. After recording \, this
name is "stored" as the current buffer. Players can request its name
and the length of the most recent recording so that they may play the
soundfile properly.;
#X text 27 75 args: \$2 length of buffer in seconds \$3 audio-in-bus
;
#X restore 9 11 pd help;
#N canvas 799 169 450 300 buffers 0;
#X obj 10 30 table 1184-table-0 1.323e+06;
#X obj 10 10 table 1184-table-1 1.323e+06;
#X restore 78 10 pd buffers;
#N canvas 792 25 291 424 create-buffers 0;
#X obj 36 15 loadbang;
#X obj 36 78 \$0;
#X obj 36 110 t f f;
#X obj 44 134 != 0;
#X obj 33 167 gate;
#X obj 61 78 \$2;
#X obj 79 106 *;
#X obj 86 78 samplerate~;
#X obj 46 214 pack;
#X obj 36 47 t b b b b;
#X obj 41 333 s pd-buffers;
#X msg 134 236 clear;
#X obj 46 243 t a a;
#X obj 14 189 t f f;
#X obj 12 383 outlet;
#X msg 12 355 \$1-table-;
#X msg 41 278 obj 10 10 table \$1-table-1 \$2;
#X msg 59 300 obj 10 30 table \$1-table-0 \$2;
#X connect 0 0 9 0;
#X connect 1 0 2 0;
#X connect 2 0 4 1;
#X connect 2 1 3 0;
#X connect 3 0 4 0;
#X connect 4 0 13 0;
#X connect 5 0 6 0;
#X connect 6 0 8 1;
#X connect 7 0 6 1;
#X connect 8 0 12 0;
#X connect 9 0 1 0;
#X connect 9 1 5 0;
#X connect 9 2 7 0;
#X connect 9 3 11 0;
#X connect 11 0 10 0;
#X connect 12 0 16 0;
#X connect 12 1 17 0;
#X connect 13 0 15 0;
#X connect 13 1 8 0;
#X connect 15 0 14 0;
#X connect 16 0 10 0;
#X connect 17 0 10 0;
#X restore 363 8 pd create-buffers;
#X obj 311 185 zl reg;
#X obj 311 205 sprintf %s%d;
#X obj 311 147 tgl 15 0 empty empty empty 17 7 0 10 -262144 -1 -1 1
1;
#X obj 311 165 t b f;
#X obj 286 8 catch~ \$3;
#X obj 216 394 tabwrite~;
#X obj 6 47 inlet;
#X obj 174 258 zl reg;
#X obj 6 105 t b b;
#X obj 174 280 t a a;
#X obj 121 375 zl reg;
#X obj 6 73 route rec-start rec-stop get-buf-info;
#X obj 79 385 f;
#X obj 121 337 t b b;
#X obj 104 443 outlet;
#X obj 141 302 zl reg;
#X obj -49 268 count~;
#X obj -31 330 snapshot~;
#X msg 6 219 stop;
#X obj 316 241 print rec-2-buf;
#X obj 213 313 prepend set;
#X obj 104 419 pack s f;
#X obj 6 166 t b b b;
#X obj 79 105 t b b b b;
#X msg 239 152 stop;
#X connect 2 0 3 1;
#X connect 3 0 4 0;
#X connect 4 0 10 1;
#X connect 5 0 6 0;
#X connect 6 0 3 0;
#X connect 6 1 4 1;
#X connect 7 0 8 0;
#X connect 9 0 14 0;
#X connect 10 0 12 0;
#X connect 11 0 25 0;
#X connect 11 1 5 0;
#X connect 12 0 18 1;
#X connect 12 1 22 0;
#X connect 12 1 23 0;
#X connect 13 0 24 0;
#X connect 14 0 11 0;
#X connect 14 1 26 0;
#X connect 14 2 16 0;
#X connect 15 0 24 1;
#X connect 16 0 13 0;
#X connect 16 1 15 0;
#X connect 18 0 13 1;
#X connect 19 0 20 0;
#X connect 20 0 15 1;
#X connect 21 0 19 0;
#X connect 23 0 8 0;
#X connect 24 0 17 0;
#X connect 25 0 19 0;
#X connect 25 1 8 0;
#X connect 25 2 10 0;
#X connect 26 0 18 0;
#X connect 26 1 21 0;
#X connect 26 2 20 0;
#X connect 26 3 27 0;
#X connect 27 0 8 0;
