#N canvas 0 22 655 559 10;
#X obj 23 22 inlet;
#X obj 220 29 inlet;
#X text 232 12 size (divisions);
#X text 60 7 start (which segment);
#X obj 46 413 outlet;
#X obj 111 411 outlet;
#X obj 214 413 outlet;
#X obj 215 305 f;
#X obj 95 146 s control-bus;
#X obj 95 166 r control-bus;
#X obj 94 187 route buf-info;
#X obj 63 309 f;
#X msg 92 123 report-buf-info;
#X obj 93 208 unpack s f;
#X obj 99 233 t b f b;
#X text 13 388 segment;
#X text 82 380 sample-length (samples);
#X text 239 381 segment size (divisions);
#X obj 43 270 gate;
#X obj 27 56 t b f b;
#X msg 39 218 1;
#X obj 64 338 t f b;
#X msg 5 297 0;
#X text 84 68 open gate \, we want to listen for buf-info;
#X text 10 354 close gate \, we don't want to be triggered when others
ask for buf-info!;
#X connect 0 0 19 0;
#X connect 1 0 7 1;
#X connect 7 0 6 0;
#X connect 9 0 10 0;
#X connect 10 0 13 0;
#X connect 11 0 21 0;
#X connect 12 0 8 0;
#X connect 13 1 14 0;
#X connect 14 0 18 1;
#X connect 14 1 5 0;
#X connect 14 2 7 0;
#X connect 18 0 11 0;
#X connect 19 0 12 0;
#X connect 19 1 11 1;
#X connect 19 2 20 0;
#X connect 20 0 18 0;
#X connect 21 0 4 0;
#X connect 21 1 22 0;
#X connect 22 0 18 0;
