#N canvas 0 22 450 300 10;
#X obj 56 44 inlet;
#X obj 62 248 outlet;
#X obj 29 82 t b b;
#X obj 45 197 t f f;
#X obj 182 152 + 1;
#X obj 151 77 sel \$2;
#X obj 78 130 f \$1;
#X obj 65 165 f \$1;
#X connect 0 0 2 0;
#X connect 2 1 7 0;
#X connect 3 0 4 0;
#X connect 3 1 1 0;
#X connect 4 0 5 0;
#X connect 5 0 6 0;
#X connect 5 1 7 1;
#X connect 6 0 7 1;
#X connect 7 0 3 0;
