#N canvas 134 68 537 519 10;
#X msg 271 221 2;
#X msg 222 201 min 0;
#X msg 161 158 goto \$1;
#X obj 171 352 == 0;
#X obj 171 379 sel 1;
#X obj 44 157 gate;
#X obj 160 412 t b b;
#X msg 272 370 0;
#X obj 75 27 t b f b b;
#X msg 75 53 1;
#X obj 66 236 gate;
#X obj 81 263 t b b;
#X msg 117 227 0;
#X obj 60 185 t b b;
#X msg 116 195 dec;
#X obj 64 85 t f f b;
#X msg 113 118 1;
#X obj 140 313 gate;
#X obj 272 399 t f f;
#X obj 159 266 counter;
#X obj 57 493 outlet;
#X obj 146 492 outlet;
#X text 17 287 first bang;
#X text 166 472 second bang;
#X obj 44 125 r \$1;
#X obj 75 4 inlet;
#X text 160 14 outputs bangs exactly n pulses separated \, argument
is pulse bus \, input is n;
#X obj 188 308 print synced-bang-pair;
#X obj 162 123 + 2;
#X text 193 122 we have to add 2 because of how 'dec' works;
#X connect 0 0 19 1;
#X connect 1 0 19 0;
#X connect 2 0 19 0;
#X connect 3 0 4 0;
#X connect 4 0 6 0;
#X connect 5 0 13 0;
#X connect 6 0 20 0;
#X connect 6 1 7 0;
#X connect 7 0 18 0;
#X connect 8 0 9 0;
#X connect 8 1 28 0;
#X connect 8 2 1 0;
#X connect 8 3 0 0;
#X connect 9 0 15 0;
#X connect 10 0 11 0;
#X connect 11 0 21 0;
#X connect 11 1 12 0;
#X connect 12 0 10 0;
#X connect 13 0 10 1;
#X connect 13 1 14 0;
#X connect 14 0 19 0;
#X connect 15 0 5 0;
#X connect 15 1 10 0;
#X connect 15 2 16 0;
#X connect 16 0 17 0;
#X connect 17 0 3 0;
#X connect 18 0 5 0;
#X connect 18 1 17 0;
#X connect 19 0 17 1;
#X connect 19 0 27 0;
#X connect 24 0 5 1;
#X connect 25 0 8 0;
#X connect 28 0 2 0;
