#N canvas 637 288 448 374 10;
#X obj 32 65 inlet;
#X obj 205 64 inlet;
#X obj 205 90 f \$1;
#X obj 32 151 timer;
#X obj 32 278 zl group;
#X obj 121 116 == 0;
#X obj 205 109 t f f;
#X obj 121 137 sel 1;
#X msg 121 157 2;
#X obj 32 95 tgl 15 0 empty empty empty 17 7 0 10 -262144 -1 -1 0 1
;
#X obj 32 118 sel 1 0;
#X obj 32 330 /;
#X obj 32 352 outlet;
#X obj 228 271 print tap-tempo-\$0;
#X obj 107 57 loadbang;
#X obj 122 199 / 2;
#X obj 122 244 t f f;
#X obj 122 220 int;
#X obj 32 300 sum;
#X text 29 9 argument is number of bangs to average over \, can also
be supplied as input \, will be rounded down to nearest even number
that is not 0;
#X connect 0 0 9 0;
#X connect 1 0 2 0;
#X connect 2 0 6 0;
#X connect 3 0 4 0;
#X connect 4 0 18 0;
#X connect 5 0 7 0;
#X connect 6 0 5 0;
#X connect 6 1 15 0;
#X connect 7 0 8 0;
#X connect 8 0 15 0;
#X connect 9 0 10 0;
#X connect 10 0 3 0;
#X connect 10 1 3 1;
#X connect 11 0 12 0;
#X connect 14 0 2 0;
#X connect 15 0 17 0;
#X connect 16 0 4 1;
#X connect 16 1 11 1;
#X connect 17 0 16 0;
#X connect 18 0 11 0;
