#N canvas 571 111 497 652 10;
#X obj 169 190 r control-bus;
#X obj 169 214 route tempo;
#X obj 159 252 f;
#X obj 24 134 t b b b;
#X obj 79 300 *;
#X obj 19 343 delay;
#X obj 23 272 t b b;
#X msg 68 356 \; control-bus rec-start;
#X msg 22 401 \; control-bus rec-stop;
#X obj 135 277 bpm2ms;
#X obj 165 114 loadbang;
#X msg 165 141 \; control-bus poll-tempo;
#X obj 22 106 inlet;
#X obj 52 187 f \$1;
#X obj 86 106 inlet;
#X text 16 36 inlet one accepts bang \, starts recording;
#X text 88 76 inlet 2 sets length of recording in beats;
#X text 84 169 argument 1 is length of recording in beats;
#X connect 0 0 1 0;
#X connect 1 0 2 1;
#X connect 2 0 9 0;
#X connect 3 0 6 0;
#X connect 3 1 13 0;
#X connect 3 2 2 0;
#X connect 4 0 5 1;
#X connect 5 0 8 0;
#X connect 6 0 5 0;
#X connect 6 1 7 0;
#X connect 9 0 4 1;
#X connect 10 0 11 0;
#X connect 12 0 3 0;
#X connect 13 0 4 0;
#X connect 14 0 13 1;
