#N canvas 571 111 497 652 10;
#X obj 171 210 r control-bus;
#X obj 157 320 f;
#X obj 24 134 t b b b;
#X obj 78 373 *;
#X obj 18 416 delay;
#X obj 22 345 t b b;
#X msg 67 429 \; control-bus rec-start;
#X msg 21 474 \; control-bus rec-stop;
#X obj 157 346 bpm2ms;
#X obj 170 122 loadbang;
#X obj 22 106 inlet;
#X obj 86 106 inlet;
#X text 21 36 inlet 2 sets length of recording in beats;
#X text 21 19 inlet 1 accepts bang \, starts recording;
#X text 22 68 argument 2 is length of recording in divisions;
#X text 22 55 argument 1 is "number" of master clock;
#X obj 43 187 f \$2;
#X obj 78 306 / 1;
#X msg 171 149 \; control-bus poll-tempo \; control-bus poll-num-divs
;
#X obj 171 230 route \$1-tempo \$1-num-divs;
#X connect 0 0 19 0;
#X connect 1 0 8 0;
#X connect 2 0 5 0;
#X connect 2 1 16 0;
#X connect 2 2 1 0;
#X connect 3 0 4 1;
#X connect 4 0 7 0;
#X connect 5 0 4 0;
#X connect 5 1 6 0;
#X connect 8 0 3 1;
#X connect 9 0 18 0;
#X connect 10 0 2 0;
#X connect 11 0 16 1;
#X connect 16 0 17 0;
#X connect 17 0 3 0;
#X connect 19 0 1 1;
#X connect 19 1 17 1;
