#N canvas 327 22 844 670 10;
#X obj 171 210 r control-bus;
#X obj 157 320 f;
#X obj 78 373 *;
#X obj 18 416 delay;
#X obj 22 345 t b b;
#X msg 67 429 \; control-bus rec-start;
#X msg 21 474 \; control-bus rec-stop;
#X obj 157 346 bpm2ms;
#X obj 326 69 loadbang;
#X obj 22 106 inlet;
#X obj 86 106 inlet;
#X text 21 36 inlet 2 sets length of recording in beats;
#X text 21 19 inlet 1 accepts bang \, starts recording;
#X text 22 68 argument 2 is length of recording in divisions;
#X text 22 55 argument 1 is "number" of master clock;
#X obj 43 187 f \$2;
#X obj 78 306 / 1;
#X obj 171 230 route \$1-tempo \$1-num-divs;
#X obj 276 99 f \$1;
#X floatatom 260 268 5 0 0 0 - - -;
#X floatatom 231 314 5 0 0 0 - - -;
#X obj 24 134 t b b b b;
#X msg 474 220 \$1-poll-tempo;
#X obj 467 265 s control-bus;
#X msg 346 218 \$1-poll-num-divs;
#X obj 276 129 t f f;
#X connect 0 0 17 0;
#X connect 1 0 7 0;
#X connect 2 0 3 1;
#X connect 3 0 6 0;
#X connect 4 0 3 0;
#X connect 4 1 5 0;
#X connect 7 0 2 1;
#X connect 8 0 18 0;
#X connect 9 0 21 0;
#X connect 10 0 15 1;
#X connect 15 0 16 0;
#X connect 16 0 2 0;
#X connect 17 0 1 1;
#X connect 17 0 20 0;
#X connect 17 1 16 1;
#X connect 17 1 19 0;
#X connect 18 0 25 0;
#X connect 21 0 4 0;
#X connect 21 1 15 0;
#X connect 21 2 1 0;
#X connect 21 3 18 0;
#X connect 22 0 23 0;
#X connect 24 0 23 0;
#X connect 25 0 24 0;
#X connect 25 1 22 0;
