#N canvas 118 25 1048 687 10;
#X obj 57 59 table \$0-table-1;
#X obj 56 82 table \$0-table-2;
#N canvas 399 122 450 300 tables 0;
#X obj 10 10 table 1000-table-1 1.323e+06;
#X restore 213 61 pd tables;
#X obj 243 231 s pd-tables;
#X obj 305 63 samplerate~;
#X obj 302 111 * 30;
#X msg 257 149 1000 \$1;
#X obj 302 27 bng 15 250 50 0 empty empty empty 17 7 0 10 -262144 -1
-1;
#X msg 237 181 obj 10 10 table \$1-table-1 \$2;
#X floatatom 126 264 5 0 0 0 - - -;
#X obj 114 236 tabread 1000-table-1;
#X floatatom 100 203 5 0 0 0 - - -;
#X obj 416 87 soundfiler;
#X msg 416 30 read /Users/mondaugen/Documents/sound/logic-samples/yamaha_grand_piano_mono/026_ped_s_mono.wav
1000-table-1;
#X obj 433 113 print;
#X obj 754 203 adc~;
#X obj 756 302 throw~ sound-in;
#X msg 301 287 rec-start;
#X msg 379 286 rec-stop;
#X msg 394 308 get-buf-info;
#X obj 326 371 print;
#X obj 326 330 abstractions/rec-2-buf blah 30 sound-in;
#X obj 384 688 dac~;
#X obj 383 590 Line~;
#X obj 380 369 unpack s f;
#X obj 396 409 f;
#X obj 285 429 prepend set;
#X obj 341 391 t b a;
#X obj 553 567 prepend set;
#X msg 553 591 0 0;
#X msg 270 501 1003-table-0;
#X obj 383 615 tabread4~ dummy;
#X msg 385 561 0 \, \$1 \$2;
#X obj 396 545 pack;
#X obj 434 458 samplerate~;
#X obj 419 479 /;
#X obj 396 430 t f f b;
#X obj 420 524 * 1000;
#X obj 459 676 throw~ sound-in;
#X obj 408 232 bng 15 250 50 0 empty empty empty 17 7 0 10 -262144
-1 -1;
#X obj 402 255 t b b;
#X obj 428 652 *~;
#X msg 525 626 \$1 100;
#X floatatom 513 599 5 0 0 0 - - -;
#X obj 494 650 Line~;
#X obj 416 504 /;
#X floatatom 458 481 5 0 0 0 - - -;
#X obj 92 454 dac~;
#X obj 94 372 prepend set;
#X msg 172 331 rate \$1;
#X msg 153 293 1;
#X msg 189 292 0;
#X msg 212 363 start 0;
#X msg 90 293 44100;
#X msg 227 290 20000;
#X obj 695 462 soundfiler;
#X msg 653 392 write -wave /Users/mondaugen/temp/horns 1003-table-0
;
#X obj 94 396 abstractions/ne.groove~;
#X connect 4 0 5 0;
#X connect 5 0 6 0;
#X connect 6 0 8 0;
#X connect 7 0 4 0;
#X connect 8 0 3 0;
#X connect 10 0 9 0;
#X connect 11 0 10 0;
#X connect 12 0 14 0;
#X connect 13 0 12 0;
#X connect 15 0 16 0;
#X connect 17 0 21 0;
#X connect 18 0 21 0;
#X connect 19 0 21 0;
#X connect 21 0 48 0;
#X connect 21 0 24 0;
#X connect 23 0 31 0;
#X connect 24 0 27 0;
#X connect 24 1 25 1;
#X connect 25 0 36 0;
#X connect 26 0 30 0;
#X connect 26 0 31 0;
#X connect 27 0 25 0;
#X connect 27 1 26 0;
#X connect 28 0 29 0;
#X connect 31 0 22 0;
#X connect 31 0 22 1;
#X connect 31 0 41 0;
#X connect 32 0 23 0;
#X connect 32 0 28 0;
#X connect 33 0 32 0;
#X connect 34 0 35 1;
#X connect 35 0 45 0;
#X connect 36 0 33 0;
#X connect 36 1 35 0;
#X connect 36 2 34 0;
#X connect 37 0 33 1;
#X connect 39 0 40 0;
#X connect 40 0 19 0;
#X connect 40 1 17 0;
#X connect 41 0 38 0;
#X connect 42 0 44 0;
#X connect 43 0 42 0;
#X connect 44 0 41 1;
#X connect 45 0 37 0;
#X connect 46 0 45 1;
#X connect 48 0 57 0;
#X connect 49 0 57 0;
#X connect 50 0 49 0;
#X connect 51 0 49 0;
#X connect 52 0 57 0;
#X connect 53 0 49 0;
#X connect 54 0 49 0;
#X connect 56 0 55 0;
