#N canvas 501 134 773 323 10;
#X msg 124 74 rec-start;
#X msg 130 94 rec-stop;
#X msg 137 114 get-buf-info;
#X obj 124 134 abstractions/rec-2-buf blah 30 sound-in;
#X obj 143 17 bng 15 250 50 0 empty empty empty 17 7 0 10 -262144 -1
-1;
#X obj 137 40 t b b;
#N canvas 752 388 450 300 groovers 0;
#X obj 36 34 inlet;
#X obj 36 229 print no-free-voice;
#X obj 36 61 abstractions/ne.groove.voice~ sound-out;
#X obj 36 82 abstractions/ne.groove.voice~ sound-out;
#X obj 36 103 abstractions/ne.groove.voice~ sound-out;
#X obj 36 124 abstractions/ne.groove.voice~ sound-out;
#X obj 36 145 abstractions/ne.groove.voice~ sound-out;
#X obj 36 166 abstractions/ne.groove.voice~ sound-out;
#X obj 36 187 abstractions/ne.groove.voice~ sound-out;
#X obj 36 208 abstractions/ne.groove.voice~ sound-out;
#X connect 0 0 2 0;
#X connect 2 0 3 0;
#X connect 3 0 4 0;
#X connect 4 0 5 0;
#X connect 5 0 6 0;
#X connect 6 0 7 0;
#X connect 7 0 8 0;
#X connect 8 0 9 0;
#X connect 9 0 1 0;
#X restore 124 273 pd groovers;
#X obj 124 250 pack s f f f f f f f;
#X obj 124 157 unpack s f;
#X floatatom 180 189 5 0 0 0 - - -;
#X floatatom 215 189 5 0 0 0 - - -;
#X floatatom 250 189 5 0 0 0 - - -;
#X floatatom 285 189 5 0 0 0 - - -;
#X floatatom 320 189 5 0 0 0 - - -;
#X floatatom 355 189 5 0 0 0 - - -;
#X obj 19 21 adc~;
#X obj 16 47 throw~ sound-in;
#X obj 15 271 dac~;
#X obj 10 183 catch~ sound-out;
#X obj 40 243 throw~ sound-in;
#X obj 31 216 *~ 0.5;
#X msg 241 21 0.5;
#X msg 273 18 0.66;
#X msg 315 13 0.75;
#X obj 241 54 t b f;
#X obj 138 197 print;
#X obj 415 70 soundfiler;
#X msg 359 33 write -wave /Users/mondaugen/temp/voice-chords 1022-table-1
;
#X connect 0 0 3 0;
#X connect 1 0 3 0;
#X connect 2 0 3 0;
#X connect 3 0 8 0;
#X connect 4 0 5 0;
#X connect 5 0 2 0;
#X connect 5 1 0 0;
#X connect 7 0 6 0;
#X connect 8 0 7 0;
#X connect 8 0 25 0;
#X connect 8 1 7 1;
#X connect 9 0 7 2;
#X connect 10 0 7 3;
#X connect 11 0 7 4;
#X connect 12 0 7 5;
#X connect 13 0 7 6;
#X connect 14 0 7 7;
#X connect 15 0 16 0;
#X connect 18 0 17 0;
#X connect 18 0 17 1;
#X connect 18 0 20 0;
#X connect 20 0 19 0;
#X connect 21 0 24 0;
#X connect 22 0 24 0;
#X connect 23 0 24 0;
#X connect 24 0 2 0;
#X connect 24 1 11 0;
#X connect 27 0 26 0;
