#N canvas 13 22 1280 638 10;
#X obj 43 114 tgl 15 0 empty empty empty 17 7 0 10 -262144 -1 -1 1
1;
#X floatatom 244 62 5 0 0 0 - 1-tempo-recv -;
#X msg 259 101 tempo \$1;
#X obj 259 126 s control-bus;
#X text 243 44 Tempo (bpm);
#X text 42 95 Clock (on/off);
#X obj 42 249 tgl 15 0 empty empty empty 17 7 0 10 -262144 -1 -1 0
1;
#N canvas 123 165 450 300 8-beat-loop 0;
#N canvas 369 400 296 143 bms 0;
#X obj 202 26 r control-bus;
#X obj 202 47 route tempo;
#X obj 24 29 inlet;
#X obj 108 31 inlet;
#X obj 22 109 outlet;
#X obj 19 75 abstractions/beats-to-ms 24 120;
#X connect 0 0 1 0;
#X connect 1 0 5 2;
#X connect 2 0 5 0;
#X connect 3 0 5 1;
#X connect 5 0 4 0;
#X restore 26 202 pd bms;
#X obj 26 15 r 1-pulse;
#X msg 26 165 8;
#X obj 26 102 counter 0 192;
#X obj 26 131 sel 0;
#X msg 26 232 play 0 0 1 \$1 100 100;
#X obj 26 77 gate;
#X obj 94 15 inlet;
#X obj 26 262 s control-bus;
#X obj 94 36 t f f;
#X msg 72 77 goto 0;
#X connect 0 0 5 0;
#X connect 1 0 6 1;
#X connect 2 0 0 0;
#X connect 3 0 4 0;
#X connect 4 0 2 0;
#X connect 5 0 8 0;
#X connect 6 0 3 0;
#X connect 7 0 9 0;
#X connect 9 0 6 0;
#X connect 9 1 10 0;
#X connect 10 0 3 0;
#X restore 42 271 pd 8-beat-loop;
#X obj 134 249 tgl 15 0 empty empty empty 17 7 0 10 -262144 -1 -1 0
1;
#N canvas 565 287 450 300 random-starting-place 0;
#N canvas 369 400 296 143 bms 0;
#X obj 202 26 r control-bus;
#X obj 202 47 route tempo;
#X obj 24 29 inlet;
#X obj 108 31 inlet;
#X obj 22 109 outlet;
#X obj 19 75 abstractions/beats-to-ms 24 120;
#X connect 0 0 1 0;
#X connect 1 0 5 2;
#X connect 2 0 5 0;
#X connect 3 0 5 1;
#X connect 5 0 4 0;
#X restore 84 203 pd bms;
#X obj 27 61 gate;
#X obj 134 16 inlet;
#X obj 29 279 s control-bus;
#X msg 85 177 1;
#X obj 28 142 t b b;
#X obj 21 179 random 8;
#X msg 29 249 play \$1 0 1 \$2 100 100;
#X obj 29 225 pack f f;
#X obj 24 205 / 8;
#X obj 134 37 t f f;
#X obj 26 15 r 1-beat-count;
#X connect 0 0 8 1;
#X connect 1 0 5 0;
#X connect 2 0 10 0;
#X connect 4 0 0 0;
#X connect 5 0 6 0;
#X connect 5 1 4 0;
#X connect 6 0 9 0;
#X connect 7 0 3 0;
#X connect 8 0 7 0;
#X connect 9 0 8 0;
#X connect 10 0 1 0;
#X connect 11 0 1 1;
#X restore 134 271 pd random-starting-place;
#X obj 66 22 abstractions/tap-tempo 8;
#X obj 66 0 bng 15 250 50 0 empty empty empty 17 7 0 10 -262144 -1
-1;
#X obj 66 44 abstractions/ms2bpm;
#N canvas 181 22 1070 606 controls 0;
#X msg 301 487 rec-start;
#X msg 82 489 rec-stop;
#X obj 82 450 abstractions/synced-bang-pair 1-pulse;
#N canvas 424 76 700 474 play-rec-system 0;
#X obj 84 185 abstractions/rec-2-buf blah 30 sound-in;
#N canvas 752 388 450 300 groovers 0;
#X obj 36 34 inlet;
#X obj 36 229 print no-free-voice;
#X obj 36 61 abstractions/ne.groove.voice~ sound-out;
#X obj 36 82 abstractions/ne.groove.voice~ sound-out;
#X obj 36 103 abstractions/ne.groove.voice~ sound-out;
#X obj 36 124 abstractions/ne.groove.voice~ sound-out;
#X obj 36 145 abstractions/ne.groove.voice~ sound-out;
#X obj 36 166 abstractions/ne.groove.voice~ sound-out;
#X obj 36 187 abstractions/ne.groove.voice~ sound-out;
#X obj 36 208 abstractions/ne.groove.voice~ sound-out;
#X connect 0 0 2 0;
#X connect 2 0 3 0;
#X connect 3 0 4 0;
#X connect 4 0 5 0;
#X connect 5 0 6 0;
#X connect 6 0 7 0;
#X connect 7 0 8 0;
#X connect 8 0 9 0;
#X connect 9 0 1 0;
#X restore 84 324 pd groovers;
#X obj 84 301 pack s f f f f f f f;
#X obj 84 208 unpack s f;
#X floatatom 140 249 5 0 0 0 - - -;
#X floatatom 175 249 5 0 0 0 - - -;
#X floatatom 210 249 5 0 0 0 - - -;
#X floatatom 245 249 5 0 0 0 - - -;
#X floatatom 280 249 5 0 0 0 - - -;
#X floatatom 315 249 5 0 0 0 - - -;
#X obj 98 248 print;
#X obj 82 65 r control-bus;
#X obj 82 89 route play;
#X obj 161 225 unpack 0 -3 1 500 20 10;
#X obj 161 204 loadbang;
#X obj 82 130 t b a;
#X msg 82 155 get-buf-info;
#X connect 0 0 3 0;
#X connect 2 0 1 0;
#X connect 3 0 2 0;
#X connect 3 0 10 0;
#X connect 3 1 2 1;
#X connect 4 0 2 2;
#X connect 5 0 2 3;
#X connect 6 0 2 4;
#X connect 7 0 2 5;
#X connect 8 0 2 6;
#X connect 9 0 2 7;
#X connect 11 0 12 0;
#X connect 12 0 15 0;
#X connect 12 1 0 0;
#X connect 13 0 4 0;
#X connect 13 1 5 0;
#X connect 13 2 6 0;
#X connect 13 3 7 0;
#X connect 13 4 8 0;
#X connect 13 5 9 0;
#X connect 14 0 13 0;
#X connect 15 0 16 0;
#X connect 15 1 13 0;
#X connect 16 0 0 0;
#X restore 313 450 pd play-rec-system;
#N canvas 137 113 588 391 audio-io 0;
#X obj 34 37 adc~;
#X obj 34 228 throw~ sound-in;
#X obj 34 368 dac~;
#X obj 35 253 catch~ sound-out;
#X obj 288 331 throw~ sound-in;
#X obj 162 15 r control-bus;
#X obj 161 41 route in-gain out-gain feedback-gain;
#X obj 34 195 *~;
#X obj 161 62 expr pow(2 \, $f1/6);
#X obj 232 84 expr pow(2 \, $f1/6);
#X obj 303 106 expr pow(2 \, $f1/6);
#X obj 49 168 Line~;
#X msg 49 145 \$1 50;
#X obj 35 341 *~;
#X obj 50 314 Line~;
#X msg 50 291 \$1 50;
#X obj 288 304 *~;
#X obj 303 277 Line~;
#X msg 303 254 \$1 50;
#X obj 79 336 catch~ metro-out;
#X connect 0 0 7 0;
#X connect 3 0 13 0;
#X connect 3 0 16 0;
#X connect 5 0 6 0;
#X connect 6 0 8 0;
#X connect 6 1 9 0;
#X connect 6 2 10 0;
#X connect 7 0 1 0;
#X connect 8 0 12 0;
#X connect 9 0 15 0;
#X connect 10 0 18 0;
#X connect 11 0 7 1;
#X connect 12 0 11 0;
#X connect 13 0 2 0;
#X connect 13 0 2 1;
#X connect 14 0 13 1;
#X connect 15 0 14 0;
#X connect 16 0 4 0;
#X connect 17 0 16 1;
#X connect 18 0 17 0;
#X connect 19 0 2 0;
#X connect 19 0 2 1;
#X restore 429 450 pd audio-io;
#X floatatom 101 18 5 0 0 0 - - -;
#X floatatom 137 18 5 0 0 0 - - -;
#X text 99 1 Beats;
#X text 135 1 Divisions;
#X obj 101 159 * 24;
#X obj 82 209 f;
#X obj 82 18 bng 15 250 50 0 empty empty empty 17 7 0 10 -262144 -1
-1;
#X obj 82 524 s control-bus;
#X text 3 19 Timed Record;
#X obj 206 22 vsl 15 128 0 127 0 0 empty in-gain-slider empty 0 -9
0 10 -262144 -1 -1 10900 1;
#X obj 206 161 - 109;
#X obj 282 21 vsl 15 128 0 127 0 0 empty out-gain-slider empty 0 -9
0 10 -262144 -1 -1 10900 1;
#X obj 282 160 - 109;
#X obj 365 21 vsl 15 128 0 127 0 0 empty feedback-gain-slider empty
0 -9 0 10 -262144 -1 -1 0 1;
#X obj 365 160 - 109;
#X obj 101 181 + 0;
#X floatatom 225 20 5 0 0 0 - in-gain-display -;
#X floatatom 300 19 5 0 0 0 - out-gain-display -;
#X floatatom 383 19 5 0 0 0 - feedback-gain-display -;
#X text 205 2 In Gain;
#X text 281 1 Out Gain;
#X text 364 1 Feedback Gain;
#X obj 252 64 + 109;
#X msg 206 187 \; control-bus in-gain \$1 \; in-gain-display set \$1
;
#X msg 282 224 \; control-bus out-gain \$1 \; out-gain-display set
\$1;
#X msg 365 259 \; control-bus feedback-gain \$1 \; feedback-gain-display
set \$1;
#X msg 238 306 \; control-bus in-gain \$1 \; in-gain-slider set \$2
;
#X msg 316 352 \; control-bus out-gain \$1 \; out-gain-slider set \$2
;
#X msg 398 398 \; control-bus feedback-gain \$1 \; feedback-gain-slider
set \$2;
#X obj 228 89 pack;
#X obj 225 40 t f f;
#X obj 327 64 + 109;
#X obj 303 89 pack;
#X obj 300 40 t f f;
#X obj 410 65 + 109;
#X obj 386 90 pack;
#X obj 383 41 t f f;
#X obj -58 231 abstractions/quantizer 1-div-count;
#X floatatom 42 210 5 0 0 0 - - -;
#X msg -58 209 do;
#X obj 82 37 bng 15 250 50 0 empty empty empty 17 7 0 10 -262144 -1
-1;
#X text 3 36 Quantize Rec;
#X text 14 56 DSP on/off;
#X obj 82 56 tgl 15 0 empty empty empty 17 7 0 10 -262144 -1 -1 1 1
;
#X msg 82 90 \; pd dsp \$1;
#X obj 477 9 loadbang;
#X msg 473 35 1;
#X connect 0 0 12 0;
#X connect 1 0 12 0;
#X connect 2 0 1 0;
#X connect 2 1 0 0;
#X connect 5 0 9 0;
#X connect 6 0 20 1;
#X connect 9 0 20 0;
#X connect 10 0 2 0;
#X connect 11 0 10 0;
#X connect 14 0 15 0;
#X connect 15 0 28 0;
#X connect 16 0 17 0;
#X connect 17 0 29 0;
#X connect 18 0 19 0;
#X connect 19 0 30 0;
#X connect 20 0 10 1;
#X connect 21 0 35 0;
#X connect 22 0 38 0;
#X connect 23 0 41 0;
#X connect 27 0 34 1;
#X connect 34 0 31 0;
#X connect 35 0 34 0;
#X connect 35 1 27 0;
#X connect 36 0 37 1;
#X connect 37 0 32 0;
#X connect 38 0 37 0;
#X connect 38 1 36 0;
#X connect 39 0 40 1;
#X connect 40 0 33 0;
#X connect 41 0 40 0;
#X connect 41 1 39 0;
#X connect 42 0 11 0;
#X connect 43 0 42 1;
#X connect 44 0 42 0;
#X connect 45 0 44 0;
#X connect 48 0 49 0;
#X connect 50 0 51 0;
#X connect 51 0 5 0;
#X coords 0 -1 1 1 450 160 2 0 0;
#X restore 357 -6 pd controls;
#X obj 286 244 tgl 15 0 empty empty empty 17 7 0 10 -262144 -1 -1 0
1;
#X obj 370 248 tgl 15 0 empty empty empty 17 7 0 10 -262144 -1 -1 0
1;
#N canvas 565 287 450 300 same-starting-place 0;
#N canvas 369 400 296 143 bms 0;
#X obj 202 26 r control-bus;
#X obj 202 47 route tempo;
#X obj 24 29 inlet;
#X obj 108 31 inlet;
#X obj 22 109 outlet;
#X obj 19 75 abstractions/beats-to-ms 24 120;
#X connect 0 0 1 0;
#X connect 1 0 5 2;
#X connect 2 0 5 0;
#X connect 3 0 5 1;
#X connect 5 0 4 0;
#X restore 84 203 pd bms;
#X obj 26 15 r 1-pulse;
#X obj 28 115 sel 0;
#X obj 27 61 gate;
#X obj 94 15 inlet;
#X obj 29 279 s control-bus;
#X obj 28 86 counter 0 24;
#X msg 85 177 1;
#X obj 28 142 t b b;
#X msg 29 249 play \$1 0 1 \$2 100 100;
#X obj 29 225 pack f f;
#X obj 94 36 t f f;
#X msg 121 57 goto 0;
#X msg 24 181 0;
#X connect 0 0 10 1;
#X connect 1 0 3 1;
#X connect 2 0 8 0;
#X connect 3 0 6 0;
#X connect 4 0 11 0;
#X connect 6 0 2 0;
#X connect 7 0 0 0;
#X connect 8 0 13 0;
#X connect 8 1 7 0;
#X connect 9 0 5 0;
#X connect 10 0 9 0;
#X connect 11 0 3 0;
#X connect 11 1 12 0;
#X connect 12 0 6 0;
#X connect 13 0 10 0;
#X restore 370 270 pd same-starting-place;
#X obj 517 248 tgl 15 0 empty empty empty 17 7 0 10 -262144 -1 -1 0
1;
#N canvas 565 287 450 300 same-starting-place-2 0;
#N canvas 369 400 296 143 bms 0;
#X obj 202 26 r control-bus;
#X obj 202 47 route tempo;
#X obj 24 29 inlet;
#X obj 108 31 inlet;
#X obj 22 109 outlet;
#X obj 19 75 abstractions/beats-to-ms 24 120;
#X connect 0 0 1 0;
#X connect 1 0 5 2;
#X connect 2 0 5 0;
#X connect 3 0 5 1;
#X connect 5 0 4 0;
#X restore 84 203 pd bms;
#X obj 27 61 gate;
#X obj 168 13 inlet;
#X obj 29 279 s control-bus;
#X msg 85 177 1;
#X obj 28 142 t b b;
#X msg 29 249 play \$1 0 1 \$2 100 100;
#X obj 29 225 pack f f;
#X obj 168 34 t f f;
#X msg 195 55 goto 0;
#X msg 24 181 0;
#X obj 26 15 r 1-beat-count;
#X obj 36 37 t b;
#X connect 0 0 7 1;
#X connect 1 0 5 0;
#X connect 2 0 8 0;
#X connect 4 0 0 0;
#X connect 5 0 10 0;
#X connect 5 1 4 0;
#X connect 6 0 3 0;
#X connect 7 0 6 0;
#X connect 8 0 1 0;
#X connect 8 1 9 0;
#X connect 10 0 7 0;
#X connect 11 0 12 0;
#X connect 12 0 1 1;
#X restore 517 270 pd same-starting-place-2;
#X obj 671 247 tgl 15 0 empty empty empty 17 7 0 10 -262144 -1 -1 0
1;
#N canvas 565 287 450 300 same-starting-place-3 0;
#N canvas 369 400 296 143 bms 0;
#X obj 202 26 r control-bus;
#X obj 202 47 route tempo;
#X obj 24 29 inlet;
#X obj 108 31 inlet;
#X obj 22 109 outlet;
#X obj 19 75 abstractions/beats-to-ms 24 120;
#X connect 0 0 1 0;
#X connect 1 0 5 2;
#X connect 2 0 5 0;
#X connect 3 0 5 1;
#X connect 5 0 4 0;
#X restore 84 203 pd bms;
#X obj 17 60 gate;
#X obj 168 13 inlet;
#X obj 29 279 s control-bus;
#X msg 85 177 1;
#X obj 28 142 t b b;
#X msg 29 249 play \$1 0 1 \$2 100 100;
#X obj 29 225 pack f f;
#X obj 168 34 t f f;
#X msg 195 55 goto 0;
#X msg 24 181 0;
#X msg 266 113 1;
#X obj 304 143 f 0;
#X obj 274 144 + 0;
#X obj 275 176 ==;
#X obj 26 15 r 1-div-count;
#X obj 24 97 sel 0 12 18;
#X connect 0 0 7 1;
#X connect 1 0 16 0;
#X connect 2 0 8 0;
#X connect 4 0 0 0;
#X connect 5 0 10 0;
#X connect 5 1 4 0;
#X connect 6 0 3 0;
#X connect 7 0 6 0;
#X connect 8 0 1 0;
#X connect 8 1 9 0;
#X connect 10 0 7 0;
#X connect 11 0 13 0;
#X connect 12 0 13 1;
#X connect 13 0 12 0;
#X connect 15 0 1 1;
#X connect 16 0 5 0;
#X connect 16 1 5 0;
#X connect 16 2 5 0;
#X restore 671 269 pd same-starting-place-3;
#N canvas 873 228 401 335 help 0;
#X text 22 15 RECORDING LOOPER;
#X text 20 28 Clock: This must be on for everything to work. The default
tempo is 120 and can be changed using the number box next to the word
"tempo" or tapped in with the button next to "tap in". The default
number of divisions is 24 (don't worry about this for now).;
#X text 21 97 Recording: make sure DSP is on (that means the box next
to it has an X in it). Turn up the in-gain using the slider or number
box. Set the number box under "beats" to how ever many beats you want
to record. Click on the button next to "timed record" to start recording
at the next subdivision (almost immediately) or click on the button
next to "quantize rec" to record starting at the next beat.;
#X text 23 193 To have a click track to play along to \, toggle the
box above "pd metronome" and if the clock and dsp are on \, you should
hear a clave playing on each beat.;
#X text 21 239 To hear what you recorded played every 8 beats \, toggle
8-beat-loop.;
#X text 20 269 To have what is being played in the score be included
with your next recording \, turn up "Feedback Gain".;
#X restore 309 -3 pd help;
#N canvas 611 201 426 360 metronome 0;
#X obj 146 2 table metro-clav 10;
#X obj 146 42 soundfiler;
#X msg 146 22 read -resize ./sounds/clav.wav metro-clav;
#X floatatom 146 62 5 0 0 0 - - -;
#X obj 30 326 throw~ metro-out;
#X msg 30 243 0 \, \$1 \$2;
#X obj 30 268 Line~;
#X obj 31 94 f;
#X obj 31 116 t f f b;
#X obj 72 150 samplerate~;
#X obj 54 175 /;
#X obj 52 198 * 1000;
#X obj 29 221 pack;
#X obj 20 8 r 1-beat-count;
#X obj 13 67 gate;
#X obj 52 41 inlet;
#X obj 30 299 tabread~ metro-clav;
#X obj 19 39 t b;
#X obj 70 71 bng 15 250 50 0 empty empty empty 17 7 0 10 -262144 -1
-1;
#X obj 268 2 loadbang;
#X connect 1 0 3 0;
#X connect 2 0 1 0;
#X connect 3 0 7 1;
#X connect 5 0 6 0;
#X connect 6 0 16 0;
#X connect 7 0 8 0;
#X connect 8 0 12 0;
#X connect 8 1 10 0;
#X connect 8 2 9 0;
#X connect 9 0 10 1;
#X connect 10 0 11 0;
#X connect 11 0 12 1;
#X connect 12 0 5 0;
#X connect 13 0 17 0;
#X connect 14 0 7 0;
#X connect 15 0 14 0;
#X connect 16 0 4 0;
#X connect 17 0 14 1;
#X connect 18 0 7 0;
#X connect 19 0 2 0;
#X restore 286 271 pd metronome;
#N canvas 838 122 465 557 help-score 0;
#X text 16 14 SCORE: This is where you dictate what is played. The
way you play what was last recorded is you send this message on the
control bus:;
#X msg 19 67 play 0 0 1 1000 100 100;
#X text 17 104 The arguments of the message are:;
#X text 17 118 PHASE: A number between 0 and 1 Where to start playing
in the recording you just did. 0 starts at the beginning \, 0.5 halfway
\, 0.25 a quarter of the way \, and so on.;
#X text 17 157 GAIN: A number between -120 and 0 How loud you play
the recording \, in decibels.;
#X text 17 184 RATE: A number between 0 and 2 (for now). How fast the
recording is played. 1 is normal speed. 2 is twice as hast and 0.5
is half as fast. Higher numbers may be possible in the future. Negative
numbers in the distant future.;
#X text 17 239 LENGTH: The length of the played sound in ms. The length
should be less than the distance between the start of playback and
the end of the soundfile.;
#X text 20 286 ATTACK: How long the attack portion of the playback
is (a ramping from 0 to 1).;
#X text 19 315 DECAY: How long the decay portion of the playback is.
;
#X obj 17 87 s control-bus;
#X obj 19 403 s control-bus;
#X msg 20 383 play 0.25 -3 0.75 1500 100 500;
#X text 16 335 Example that starts 1/4 into the recording \, plays
at -3 dB \, plays at 3/4 speed for 1500 ms with an attack time of 100
and decay of 500;
#X text 17 436 Currently only 8 notes of polyphony (8 recordings can
be played at the same time) \, can be increased easily.;
#X connect 1 0 9 0;
#X connect 11 0 10 0;
#X restore 40 221 pd help-score;
#N canvas 399 115 425 557 random-tempo-generator 0;
#X obj 10 49 r 1-beat-count;
#X obj 109 161 f;
#X obj 106 49 inlet;
#X obj 9 243 -;
#X obj 106 104 t f f;
#X obj 133 128 sel 1;
#X obj 10 103 t f f;
#X obj 9 152 gate;
#X obj 9 270 s rtg-beat-count;
#N canvas 259 225 443 359 tempo-change-1 0;
#X obj 45 12 r rtg-beat-count;
#X obj 45 101 gate;
#X obj 83 75 r 1-div-count;
#X obj 46 75 == 4;
#X obj 41 131 sel 12;
#X obj 41 170 random 4;
#X obj 40 195 sel 0 1 2 3;
#X msg 38 221 50;
#X msg 49 241 100;
#X msg 61 262 150;
#X msg 78 284 200;
#X obj 39 310 s tempo-recv;
#X connect 0 0 3 0;
#X connect 1 0 4 0;
#X connect 2 0 1 1;
#X connect 3 0 1 0;
#X connect 4 0 5 0;
#X connect 5 0 6 0;
#X connect 6 0 7 0;
#X connect 6 1 8 0;
#X connect 6 2 9 0;
#X connect 6 3 10 0;
#X connect 7 0 11 0;
#X connect 8 0 11 0;
#X connect 9 0 11 0;
#X connect 10 0 11 0;
#X restore 215 260 pd tempo-change-1;
#N canvas 259 225 443 359 tempo-change-2 0;
#X obj 45 12 r rtg-beat-count;
#X obj 45 101 gate;
#X obj 83 75 r 1-div-count;
#X obj 41 170 random 4;
#X obj 40 195 sel 0 1 2 3;
#X msg 38 221 50;
#X msg 49 241 100;
#X msg 61 262 150;
#X msg 78 284 200;
#X obj 46 75 == 10;
#X obj 41 131 sel 0;
#X obj 39 309 s tempo-recv;
#X connect 0 0 9 0;
#X connect 1 0 10 0;
#X connect 2 0 1 1;
#X connect 3 0 4 0;
#X connect 4 0 5 0;
#X connect 4 1 6 0;
#X connect 4 2 7 0;
#X connect 4 3 8 0;
#X connect 5 0 11 0;
#X connect 6 0 11 0;
#X connect 7 0 11 0;
#X connect 8 0 11 0;
#X connect 9 0 1 0;
#X connect 10 0 3 0;
#X restore 214 281 pd tempo-change-2;
#N canvas 259 225 443 359 tempo-change-3 0;
#X obj 45 12 r rtg-beat-count;
#X obj 45 101 gate;
#X obj 83 75 r 1-div-count;
#X obj 41 170 random 4;
#X obj 40 195 sel 0 1 2 3;
#X msg 38 221 50;
#X msg 49 241 100;
#X msg 61 262 150;
#X msg 78 284 200;
#X obj 41 131 sel 0;
#X obj 46 75 == 13;
#X obj 39 310 s tempo-recv;
#X connect 0 0 10 0;
#X connect 1 0 9 0;
#X connect 2 0 1 1;
#X connect 3 0 4 0;
#X connect 4 0 5 0;
#X connect 4 1 6 0;
#X connect 4 2 7 0;
#X connect 4 3 8 0;
#X connect 5 0 11 0;
#X connect 6 0 11 0;
#X connect 7 0 11 0;
#X connect 8 0 11 0;
#X connect 9 0 3 0;
#X connect 10 0 1 0;
#X restore 214 301 pd tempo-change-3;
#N canvas 293 358 450 300 8th-notes 0;
#X obj 43 126 gate;
#X obj 41 245 s control-bus;
#X msg 41 221 play 0 0 1 \$1 10 100;
#X obj 43 146 sel 0 12;
#X msg 41 175 13;
#X text 78 174 13 divisions of length for legato;
#X obj 40 199 scores/rtg-bms;
#X obj 37 12 r rtg-beat-count;
#X obj 37 75 >= 0;
#X obj 37 106 &&;
#X obj 39 40 t f f;
#X obj 76 73 < 16;
#X obj 135 71 r 1-div-count;
#X obj 177 10 inlet;
#X connect 0 0 3 0;
#X connect 2 0 1 0;
#X connect 3 0 4 0;
#X connect 3 1 4 0;
#X connect 4 0 6 1;
#X connect 6 0 2 0;
#X connect 7 0 10 0;
#X connect 8 0 9 0;
#X connect 9 0 0 0;
#X connect 10 0 8 0;
#X connect 10 1 11 0;
#X connect 11 0 9 1;
#X connect 12 0 0 1;
#X connect 13 0 0 0;
#X restore 23 371 pd 8th-notes;
#X text 5 3 Start by recording a c# for one beat as described in "pd
help" of the parent patch. The activate this score by toggling it in
the parent patch.;
#X obj 63 201 + 1;
#X obj 203 381 r rtg-beat-count;
#X msg 197 457 1;
#X floatatom 274 486 5 0 0 0 - - -;
#X obj 199 419 sel 16;
#X obj 88 76 t f f;
#X obj 57 306 sel 0;
#X msg 44 345 0;
#X connect 0 0 6 0;
#X connect 1 0 14 0;
#X connect 2 0 19 0;
#X connect 3 0 8 0;
#X connect 4 0 7 0;
#X connect 4 1 5 0;
#X connect 5 0 1 0;
#X connect 6 0 7 1;
#X connect 6 1 1 1;
#X connect 7 0 3 0;
#X connect 14 0 3 1;
#X connect 15 0 17 0;
#X connect 15 0 18 0;
#X connect 16 0 4 0;
#X connect 18 0 16 0;
#X connect 19 0 20 0;
#X connect 19 1 4 0;
#X connect 20 0 21 0;
#X connect 21 0 12 0;
#X restore 41 338 pd random-tempo-generator;
#X obj 41 308 tgl 15 0 empty empty empty 17 7 0 10 -262144 -1 -1 0
1;
#X text 61 306 <-- toggle here;
#X text 86 -2 Tap In;
#X obj 66 66 s tempo-recv;
#X msg 275 331 \; control-bus rec-start;
#X msg 284 363 \; control-bus rec-stop;
#X obj 450 303 r 1-div-count;
#X obj 496 514 sel 0 12;
#X obj 483 438 sel 0 20;
#X msg 513 596 \; control-bus play 0 0 0.333 500 250 250;
#X msg 497 542 \; control-bus play 0 0 0.666 500 250 250;
#X obj 451 382 gate 2;
#X obj 556 306 r 1-beat-count;
#X obj 545 354 + 0;
#X obj 550 327 % 4;
#X msg 586 486 \; control-bus play 0 0 0.5 1500 250 250;
#X msg 570 432 \; control-bus play 0 0 1 1500 250 250;
#X obj 169 73 loadbang;
#X msg 167 96 120;
#X obj 479 343 gate;
#X obj 453 337 tgl 15 0 empty empty empty 17 7 0 10 -262144 -1 -1 0
1;
#X msg 937 637 \; control-bus play 0 0 1 \$1 1 1;
#X obj 1080 460 r control-bus;
#X obj 1080 484 route tempo;
#X obj 1041 548 abstractions/bpm2ms;
#X obj 985 571 *;
#X msg 983 501 8;
#X obj 43 152 abstractions/master-clock 1 24 120;
#X obj 308 176 r control-bus;
#X obj 308 200 print;
#X msg 477 174 \; control-bus poll-tempo;
#X obj 39 428 abstractions/timed-record 8;
#X obj 46 394 bng 15 250 50 0 empty empty empty 17 7 0 10 -262144 -1
-1;
#X obj 44 491 abstractions/timed-record 4;
#X obj 77 454 bng 15 250 50 0 empty empty empty 17 7 0 10 -262144 -1
-1;
#X msg 941 524 4;
#X obj 52 726 pow;
#X obj 67 699 / 12;
#X msg 35 676 2;
#X obj 44 641 t b f;
#X msg 47 596 0;
#X msg 32 760 \; control-bus play 0 0 \$1 1000 20 750;
#X msg 85 594 -7;
#X msg 98 623 -0.25;
#X obj 242 676 r 1-div-count;
#X obj 345 677 r 1-beat-count;
#X floatatom 256 708 5 0 0 0 - - -;
#X floatatom 343 708 5 0 0 0 - - -;
#X obj 347 735 % 16;
#X floatatom 348 761 5 0 0 0 - - -;
#X obj 919 422 % 8;
#X obj 921 449 sel 0;
#X obj 959 247 r 1-beat-count;
#X floatatom 993 434 5 0 0 0 - - -;
#X floatatom 1014 287 5 0 0 0 - - -;
#X obj 970 312 f;
#X obj 937 357 -;
#X obj 967 277 t f f;
#X obj 907 386 gate;
#X obj 874 233 tgl 15 0 empty empty empty 17 7 0 10 -262144 -1 -1 0
1;
#X obj 897 286 sel 1;
#X obj 866 262 t f f;
#X obj 962 338 + 1;
#X obj 219 493 bng 15 250 50 0 empty empty empty 17 7 0 10 -262144
-1 -1;
#X obj 89 367 tgl 15 0 empty empty empty 17 7 0 10 -262144 -1 -1 0
1;
#X text 109 365 <-- toggle here;
#N canvas 399 115 425 557 random-tempo-generator-2 0;
#X obj 10 49 r 1-beat-count;
#X obj 109 161 f;
#X obj 106 49 inlet;
#X obj 9 243 -;
#X obj 106 104 t f f;
#X obj 133 128 sel 1;
#X obj 10 103 t f f;
#X obj 9 152 gate;
#N canvas 259 225 443 359 tempo-change-1 0;
#X obj 45 101 gate;
#X obj 83 75 r 1-div-count;
#X obj 46 75 == 4;
#X obj 43 158 sel 12;
#X msg 38 221 50;
#X msg 49 241 100;
#X msg 61 262 150;
#X msg 78 284 200;
#X obj 39 310 s tempo-recv;
#X obj 45 12 r rtg2-beat-count;
#X connect 0 0 3 0;
#X connect 1 0 0 1;
#X connect 2 0 0 0;
#X connect 3 0 6 0;
#X connect 4 0 8 0;
#X connect 5 0 8 0;
#X connect 6 0 8 0;
#X connect 7 0 8 0;
#X connect 9 0 2 0;
#X restore 215 255 pd tempo-change-1;
#N canvas 259 225 443 359 tempo-change-2 0;
#X obj 45 101 gate;
#X obj 83 75 r 1-div-count;
#X msg 38 221 50;
#X msg 49 241 100;
#X msg 61 262 150;
#X msg 78 284 200;
#X obj 46 75 == 10;
#X obj 41 131 sel 0;
#X obj 39 309 s tempo-recv;
#X obj 45 12 r rtg2-beat-count;
#X connect 0 0 7 0;
#X connect 1 0 0 1;
#X connect 2 0 8 0;
#X connect 3 0 8 0;
#X connect 4 0 8 0;
#X connect 5 0 8 0;
#X connect 6 0 0 0;
#X connect 7 0 2 0;
#X connect 9 0 6 0;
#X restore 215 275 pd tempo-change-2;
#N canvas 259 225 443 359 tempo-change-3 0;
#X obj 45 101 gate;
#X obj 83 75 r 1-div-count;
#X msg 38 221 50;
#X msg 49 241 100;
#X msg 61 262 150;
#X msg 78 284 200;
#X obj 41 131 sel 0;
#X obj 46 75 == 13;
#X obj 39 310 s tempo-recv;
#X obj 45 12 r rtg2-beat-count;
#X connect 0 0 6 0;
#X connect 1 0 0 1;
#X connect 2 0 8 0;
#X connect 3 0 8 0;
#X connect 4 0 8 0;
#X connect 5 0 8 0;
#X connect 6 0 5 0;
#X connect 7 0 0 0;
#X connect 9 0 7 0;
#X restore 215 295 pd tempo-change-3;
#N canvas 293 358 450 300 8th-notes 0;
#X obj 43 126 gate;
#X obj 41 245 s control-bus;
#X msg 41 221 play 0 0 1 \$1 10 100;
#X obj 43 146 sel 0 12;
#X msg 41 175 13;
#X text 78 174 13 divisions of length for legato;
#X obj 40 199 scores/rtg-bms;
#X obj 37 75 >= 0;
#X obj 37 106 &&;
#X obj 39 40 t f f;
#X obj 76 73 < 16;
#X obj 135 71 r 1-div-count;
#X obj 177 10 inlet;
#X obj 37 12 r rtg2-beat-count;
#X connect 0 0 3 0;
#X connect 2 0 1 0;
#X connect 3 0 4 0;
#X connect 3 1 4 0;
#X connect 4 0 6 1;
#X connect 6 0 2 0;
#X connect 7 0 8 0;
#X connect 8 0 0 0;
#X connect 9 0 7 0;
#X connect 9 1 10 0;
#X connect 10 0 8 1;
#X connect 11 0 0 1;
#X connect 12 0 0 0;
#X connect 13 0 9 0;
#X restore 23 371 pd 8th-notes;
#X text 5 3 Start by recording a c# for one beat as described in "pd
help" of the parent patch. The activate this score by toggling it in
the parent patch.;
#X obj 63 201 + 1;
#X msg 197 457 1;
#X floatatom 274 486 5 0 0 0 - - -;
#X obj 199 419 sel 16;
#X obj 57 306 sel 0;
#X msg 44 345 0;
#X obj 9 270 s rtg2-beat-count;
#X obj 203 381 r rtg2-beat-count;
#N canvas 259 225 443 359 tempo-change-0 0;
#X obj 45 101 gate;
#X obj 83 75 r 1-div-count;
#X msg 38 221 50;
#X msg 49 241 100;
#X msg 61 262 150;
#X msg 78 284 200;
#X obj 39 310 s tempo-recv;
#X obj 45 12 r rtg2-beat-count;
#X obj 46 75 == 0;
#X obj 43 158 sel 0;
#X connect 0 0 9 0;
#X connect 1 0 0 1;
#X connect 2 0 6 0;
#X connect 3 0 6 0;
#X connect 4 0 6 0;
#X connect 5 0 6 0;
#X connect 7 0 8 0;
#X connect 8 0 0 0;
#X connect 9 0 3 0;
#X restore 215 235 pd tempo-change-0;
#X obj 147 336 gate;
#X obj 88 76 t f f f;
#X connect 0 0 6 0;
#X connect 1 0 13 0;
#X connect 2 0 23 0;
#X connect 3 0 19 0;
#X connect 4 0 7 0;
#X connect 4 1 5 0;
#X connect 5 0 1 0;
#X connect 6 0 7 1;
#X connect 6 1 1 1;
#X connect 7 0 3 0;
#X connect 13 0 3 1;
#X connect 14 0 22 1;
#X connect 16 0 14 0;
#X connect 17 0 18 0;
#X connect 18 0 11 0;
#X connect 20 0 15 0;
#X connect 20 0 16 0;
#X connect 22 0 4 0;
#X connect 23 0 17 0;
#X connect 23 1 4 0;
#X connect 23 2 22 0;
#X restore 89 397 pd random-tempo-generator-2;
#X obj 261 404 tgl 15 0 empty empty empty 17 7 0 10 -262144 -1 -1 0
1;
#X text 281 402 <-- toggle here;
#N canvas 399 115 425 557 random-tempo-generator-3 0;
#X obj 10 49 r 1-beat-count;
#X obj 109 161 f;
#X obj 106 49 inlet;
#X obj 9 243 -;
#X obj 106 104 t f f;
#X obj 133 128 sel 1;
#X obj 10 103 t f f;
#X obj 9 152 gate;
#N canvas 259 225 443 359 tempo-change-1 0;
#X obj 45 101 gate;
#X obj 83 75 r 1-div-count;
#X obj 46 75 == 4;
#X obj 43 158 sel 12;
#X msg 38 221 50;
#X msg 49 241 100;
#X msg 61 262 150;
#X msg 78 284 200;
#X obj 39 310 s tempo-recv;
#X obj 45 12 r rtg3-beat-count;
#X obj 47 185 gate;
#X obj 229 13 inlet;
#X connect 0 0 3 0;
#X connect 1 0 0 1;
#X connect 2 0 0 0;
#X connect 3 0 10 1;
#X connect 4 0 8 0;
#X connect 5 0 8 0;
#X connect 6 0 8 0;
#X connect 7 0 8 0;
#X connect 9 0 2 0;
#X connect 10 0 6 0;
#X connect 11 0 10 0;
#X restore 215 255 pd tempo-change-1;
#N canvas 259 225 443 359 tempo-change-2 0;
#X obj 45 101 gate;
#X obj 83 75 r 1-div-count;
#X msg 38 221 50;
#X msg 49 241 100;
#X msg 61 262 150;
#X msg 78 284 200;
#X obj 46 75 == 10;
#X obj 41 131 sel 0;
#X obj 39 309 s tempo-recv;
#X obj 45 12 r rtg3-beat-count;
#X obj 38 183 gate;
#X obj 222 17 inlet;
#X connect 0 0 7 0;
#X connect 1 0 0 1;
#X connect 2 0 8 0;
#X connect 3 0 8 0;
#X connect 4 0 8 0;
#X connect 5 0 8 0;
#X connect 6 0 0 0;
#X connect 7 0 10 1;
#X connect 9 0 6 0;
#X connect 10 0 2 0;
#X connect 11 0 10 0;
#X restore 215 275 pd tempo-change-2;
#N canvas 259 225 443 359 tempo-change-3 0;
#X obj 45 101 gate;
#X obj 83 75 r 1-div-count;
#X msg 38 221 50;
#X msg 49 241 100;
#X msg 61 262 150;
#X msg 78 284 200;
#X obj 41 131 sel 0;
#X obj 46 75 == 13;
#X obj 39 310 s tempo-recv;
#X obj 44 12 r rtg3-beat-count;
#X obj 68 174 gate;
#X obj 299 77 inlet;
#X connect 0 0 6 0;
#X connect 1 0 0 1;
#X connect 2 0 8 0;
#X connect 3 0 8 0;
#X connect 4 0 8 0;
#X connect 5 0 8 0;
#X connect 6 0 10 1;
#X connect 7 0 0 0;
#X connect 9 0 7 0;
#X connect 10 0 5 0;
#X connect 11 0 10 0;
#X restore 215 295 pd tempo-change-3;
#N canvas 741 116 454 476 8th-notes 0;
#X obj 43 126 gate;
#X obj 69 430 s control-bus;
#X obj 47 185 sel 0 12;
#X obj 67 268 scores/rtg-bms;
#X obj 37 75 >= 0;
#X obj 37 106 &&;
#X obj 39 40 t f f;
#X obj 76 73 < 16;
#X obj 135 71 r 1-div-count;
#X obj 177 10 inlet;
#X msg 45 214 4;
#X text 82 213 4 divisions of length for staccato;
#X msg 69 406 play \$2 0 1 \$1 10 100;
#X obj 69 294 t f b;
#X obj 69 380 pack f f;
#X obj 113 349 / 4;
#X obj 37 12 r rtg3-beat-count;
#X obj 110 322 abstractions/simple-counter-up 0 4;
#X connect 0 0 2 0;
#X connect 2 0 10 0;
#X connect 2 1 10 0;
#X connect 3 0 13 0;
#X connect 4 0 5 0;
#X connect 5 0 0 0;
#X connect 6 0 4 0;
#X connect 6 1 7 0;
#X connect 7 0 5 1;
#X connect 8 0 0 1;
#X connect 9 0 0 0;
#X connect 10 0 3 1;
#X connect 12 0 1 0;
#X connect 13 0 14 0;
#X connect 13 1 17 0;
#X connect 14 0 12 0;
#X connect 15 0 14 1;
#X connect 16 0 6 0;
#X connect 17 0 15 0;
#X restore 23 371 pd 8th-notes;
#X text 5 3 Start by recording a c# for one beat as described in "pd
help" of the parent patch. The activate this score by toggling it in
the parent patch.;
#X obj 63 201 + 1;
#X msg 197 457 1;
#X floatatom 274 486 5 0 0 0 - - -;
#X obj 199 419 sel 16;
#X obj 57 306 sel 0;
#X msg 44 345 0;
#N canvas 259 225 443 359 tempo-change-0 0;
#X obj 45 101 gate;
#X obj 83 75 r 1-div-count;
#X msg 38 221 50;
#X msg 49 241 100;
#X msg 61 262 150;
#X msg 78 284 200;
#X obj 39 310 s tempo-recv;
#X obj 46 75 == 0;
#X obj 43 158 sel 0;
#X obj 45 12 r rtg3-beat-count;
#X obj 244 10 inlet;
#X obj 42 186 gate;
#X connect 0 0 8 0;
#X connect 1 0 0 1;
#X connect 2 0 6 0;
#X connect 3 0 6 0;
#X connect 4 0 6 0;
#X connect 5 0 6 0;
#X connect 7 0 0 0;
#X connect 8 0 11 1;
#X connect 9 0 7 0;
#X connect 10 0 11 0;
#X connect 11 0 3 0;
#X restore 215 235 pd tempo-change-0;
#X text 27 401 note: length short for staccato;
#X obj 164 332 gate;
#X obj 9 270 s rtg3-beat-count;
#X obj 242 333 r rtg3-beat-count;
#X obj 215 190 t f f f f;
#X obj 87 76 t f f f f;
#X connect 0 0 6 0;
#X connect 1 0 13 0;
#X connect 2 0 25 0;
#X connect 3 0 22 0;
#X connect 4 0 7 0;
#X connect 4 1 5 0;
#X connect 5 0 1 0;
#X connect 6 0 7 1;
#X connect 6 1 1 1;
#X connect 7 0 3 0;
#X connect 13 0 3 1;
#X connect 14 0 21 1;
#X connect 16 0 14 0;
#X connect 17 0 18 0;
#X connect 18 0 11 0;
#X connect 21 0 4 0;
#X connect 23 0 15 0;
#X connect 23 0 16 0;
#X connect 24 0 19 0;
#X connect 24 1 8 0;
#X connect 24 2 9 0;
#X connect 24 3 10 0;
#X connect 25 0 17 0;
#X connect 25 1 4 0;
#X connect 25 2 21 0;
#X connect 25 3 24 0;
#X restore 261 434 pd random-tempo-generator-3;
#X obj 186 530 abstractions/timed-record 2;
#X msg 117 589 -12;
#X floatatom 871 175 5 0 0 0 - - -;
#X obj 854 106 bng 15 250 50 0 empty empty empty 17 7 0 10 -262144
-1 -1;
#X obj 861 143 abstractions/simple-counter-up -1 5;
#X obj 302 491 scores/random-tempo-generator 1;
#X obj 295 462 tgl 15 0 empty empty empty 17 7 0 10 -262144 -1 -1 0
1;
#X text 315 460 <-- toggle here;
#X connect 0 0 52 0;
#X connect 1 0 2 0;
#X connect 1 0 52 2;
#X connect 2 0 3 0;
#X connect 6 0 7 0;
#X connect 8 0 9 0;
#X connect 10 0 12 0;
#X connect 11 0 10 0;
#X connect 12 0 28 0;
#X connect 14 0 22 0;
#X connect 15 0 16 0;
#X connect 17 0 18 0;
#X connect 19 0 20 0;
#X connect 25 0 24 0;
#X connect 31 0 44 1;
#X connect 32 0 35 0;
#X connect 32 1 34 0;
#X connect 33 0 40 0;
#X connect 33 1 41 0;
#X connect 36 0 32 0;
#X connect 36 1 33 0;
#X connect 37 0 39 0;
#X connect 38 0 36 0;
#X connect 39 0 38 0;
#X connect 42 0 43 0;
#X connect 43 0 28 0;
#X connect 44 0 36 1;
#X connect 45 0 44 0;
#X connect 47 0 48 0;
#X connect 48 0 49 0;
#X connect 49 0 50 1;
#X connect 50 0 46 0;
#X connect 51 0 50 0;
#X connect 53 0 54 0;
#X connect 57 0 56 0;
#X connect 59 0 58 0;
#X connect 60 0 50 0;
#X connect 61 0 66 0;
#X connect 62 0 61 1;
#X connect 63 0 61 0;
#X connect 64 0 63 0;
#X connect 64 1 62 0;
#X connect 65 0 64 0;
#X connect 67 0 64 0;
#X connect 68 0 64 0;
#X connect 69 0 71 0;
#X connect 70 0 72 0;
#X connect 72 0 73 0;
#X connect 73 0 74 0;
#X connect 75 0 76 0;
#X connect 75 0 78 0;
#X connect 76 0 51 0;
#X connect 77 0 82 0;
#X connect 79 0 80 1;
#X connect 80 0 87 0;
#X connect 81 0 83 1;
#X connect 82 0 81 0;
#X connect 82 1 79 0;
#X connect 83 0 75 0;
#X connect 84 0 86 0;
#X connect 85 0 80 0;
#X connect 86 0 83 0;
#X connect 86 1 85 0;
#X connect 87 0 81 1;
#X connect 88 0 95 0;
#X connect 89 0 91 0;
#X connect 92 0 94 0;
#X connect 96 0 64 0;
#X connect 98 0 99 0;
#X connect 99 0 97 0;
#X connect 101 0 100 0;
