#N canvas 188 49 838 421 10;
#X obj 43 114 tgl 15 0 empty empty empty 17 7 0 10 -262144 -1 -1 0
1;
#X floatatom 244 62 5 0 0 0 - 1-tempo-recv -;
#X msg 259 101 tempo \$1;
#X obj 259 126 s control-bus;
#X text 243 44 Tempo (bpm);
#X text 42 95 Clock (on/off);
#X obj 42 249 tgl 15 0 empty empty empty 17 7 0 10 -262144 -1 -1 0
1;
#N canvas 123 165 450 300 8-beat-loop 0;
#N canvas 369 400 296 143 bms 0;
#X obj 202 26 r control-bus;
#X obj 202 47 route tempo;
#X obj 24 29 inlet;
#X obj 108 31 inlet;
#X obj 22 109 outlet;
#X obj 19 75 abstractions/beats-to-ms 24 120;
#X connect 0 0 1 0;
#X connect 1 0 5 2;
#X connect 2 0 5 0;
#X connect 3 0 5 1;
#X connect 5 0 4 0;
#X restore 26 202 pd bms;
#X obj 26 15 r 1-pulse;
#X msg 26 165 8;
#X obj 26 102 counter 0 192;
#X obj 26 131 sel 0;
#X msg 26 232 play 0 0 1 \$1 100 100;
#X obj 26 77 gate;
#X obj 94 15 inlet;
#X obj 26 262 s control-bus;
#X obj 94 36 t f f;
#X msg 72 77 goto 0;
#X connect 0 0 5 0;
#X connect 1 0 6 1;
#X connect 2 0 0 0;
#X connect 3 0 4 0;
#X connect 4 0 2 0;
#X connect 5 0 8 0;
#X connect 6 0 3 0;
#X connect 7 0 9 0;
#X connect 9 0 6 0;
#X connect 9 1 10 0;
#X connect 10 0 3 0;
#X restore 42 271 pd 8-beat-loop;
#X obj 134 249 tgl 15 0 empty empty empty 17 7 0 10 -262144 -1 -1 0
1;
#N canvas 565 287 450 300 random-starting-place 0;
#N canvas 369 400 296 143 bms 0;
#X obj 202 26 r control-bus;
#X obj 202 47 route tempo;
#X obj 24 29 inlet;
#X obj 108 31 inlet;
#X obj 22 109 outlet;
#X obj 19 75 abstractions/beats-to-ms 24 120;
#X connect 0 0 1 0;
#X connect 1 0 5 2;
#X connect 2 0 5 0;
#X connect 3 0 5 1;
#X connect 5 0 4 0;
#X restore 84 203 pd bms;
#X obj 27 61 gate;
#X obj 134 16 inlet;
#X obj 29 279 s control-bus;
#X msg 85 177 1;
#X obj 28 142 t b b;
#X obj 21 179 random 8;
#X msg 29 249 play \$1 0 1 \$2 100 100;
#X obj 29 225 pack f f;
#X obj 24 205 / 8;
#X obj 134 37 t f f;
#X obj 26 15 r 1-beat-count;
#X connect 0 0 8 1;
#X connect 1 0 5 0;
#X connect 2 0 10 0;
#X connect 4 0 0 0;
#X connect 5 0 6 0;
#X connect 5 1 4 0;
#X connect 6 0 9 0;
#X connect 7 0 3 0;
#X connect 8 0 7 0;
#X connect 9 0 8 0;
#X connect 10 0 1 0;
#X connect 11 0 1 1;
#X restore 134 271 pd random-starting-place;
#X obj 66 22 abstractions/tap-tempo 8;
#X obj 66 0 bng 15 250 50 0 empty empty empty 17 7 0 10 -262144 -1
-1;
#X obj 66 44 abstractions/ms2bpm;
#N canvas 181 22 1070 606 controls 0;
#N canvas 424 76 700 474 play-rec-system 0;
#X obj 84 185 abstractions/rec-2-buf blah 30 sound-in;
#N canvas 752 388 450 300 groovers 0;
#X obj 36 34 inlet;
#X obj 36 229 print no-free-voice;
#X obj 36 61 abstractions/ne.groove.voice~ sound-out;
#X obj 36 82 abstractions/ne.groove.voice~ sound-out;
#X obj 36 103 abstractions/ne.groove.voice~ sound-out;
#X obj 36 124 abstractions/ne.groove.voice~ sound-out;
#X obj 36 145 abstractions/ne.groove.voice~ sound-out;
#X obj 36 166 abstractions/ne.groove.voice~ sound-out;
#X obj 36 187 abstractions/ne.groove.voice~ sound-out;
#X obj 36 208 abstractions/ne.groove.voice~ sound-out;
#X connect 0 0 2 0;
#X connect 2 0 3 0;
#X connect 3 0 4 0;
#X connect 4 0 5 0;
#X connect 5 0 6 0;
#X connect 6 0 7 0;
#X connect 7 0 8 0;
#X connect 8 0 9 0;
#X connect 9 0 1 0;
#X restore 84 324 pd groovers;
#X obj 84 301 pack s f f f f f f f;
#X obj 84 208 unpack s f;
#X floatatom 140 249 5 0 0 0 - - -;
#X floatatom 175 249 5 0 0 0 - - -;
#X floatatom 210 249 5 0 0 0 - - -;
#X floatatom 245 249 5 0 0 0 - - -;
#X floatatom 280 249 5 0 0 0 - - -;
#X floatatom 315 249 5 0 0 0 - - -;
#X obj 98 248 print;
#X obj 82 65 r control-bus;
#X obj 82 89 route play;
#X obj 161 225 unpack 0 -3 1 500 20 10;
#X obj 161 204 loadbang;
#X obj 82 130 t b a;
#X msg 82 155 get-buf-info;
#X connect 0 0 3 0;
#X connect 2 0 1 0;
#X connect 3 0 2 0;
#X connect 3 0 10 0;
#X connect 3 1 2 1;
#X connect 4 0 2 2;
#X connect 5 0 2 3;
#X connect 6 0 2 4;
#X connect 7 0 2 5;
#X connect 8 0 2 6;
#X connect 9 0 2 7;
#X connect 11 0 12 0;
#X connect 12 0 15 0;
#X connect 12 1 0 0;
#X connect 13 0 4 0;
#X connect 13 1 5 0;
#X connect 13 2 6 0;
#X connect 13 3 7 0;
#X connect 13 4 8 0;
#X connect 13 5 9 0;
#X connect 14 0 13 0;
#X connect 15 0 16 0;
#X connect 15 1 13 0;
#X connect 16 0 0 0;
#X restore 313 450 pd play-rec-system;
#N canvas 137 113 588 391 audio-io 0;
#X obj 34 37 adc~;
#X obj 34 228 throw~ sound-in;
#X obj 34 368 dac~;
#X obj 35 253 catch~ sound-out;
#X obj 288 331 throw~ sound-in;
#X obj 162 15 r control-bus;
#X obj 161 41 route in-gain out-gain feedback-gain;
#X obj 34 195 *~;
#X obj 161 62 expr pow(2 \, $f1/6);
#X obj 232 84 expr pow(2 \, $f1/6);
#X obj 303 106 expr pow(2 \, $f1/6);
#X obj 49 168 Line~;
#X msg 49 145 \$1 50;
#X obj 35 341 *~;
#X obj 50 314 Line~;
#X msg 50 291 \$1 50;
#X obj 288 304 *~;
#X obj 303 277 Line~;
#X msg 303 254 \$1 50;
#X obj 79 336 catch~ metro-out;
#X connect 0 0 7 0;
#X connect 3 0 13 0;
#X connect 3 0 16 0;
#X connect 5 0 6 0;
#X connect 6 0 8 0;
#X connect 6 1 9 0;
#X connect 6 2 10 0;
#X connect 7 0 1 0;
#X connect 8 0 12 0;
#X connect 9 0 15 0;
#X connect 10 0 18 0;
#X connect 11 0 7 1;
#X connect 12 0 11 0;
#X connect 13 0 2 0;
#X connect 13 0 2 1;
#X connect 14 0 13 1;
#X connect 15 0 14 0;
#X connect 16 0 4 0;
#X connect 17 0 16 1;
#X connect 18 0 17 0;
#X connect 19 0 2 0;
#X connect 19 0 2 1;
#X restore 429 450 pd audio-io;
#X floatatom 101 18 5 0 0 0 - - -;
#X floatatom 137 18 5 0 0 0 - - -;
#X text 99 1 Beats;
#X text 135 1 Divisions;
#X obj 82 18 bng 15 250 50 0 empty empty empty 17 7 0 10 -262144 -1
-1;
#X text 3 19 Timed Record;
#X obj 206 22 vsl 15 128 0 127 0 0 empty in-gain-slider empty 0 -9
0 10 -262144 -1 -1 11000 1;
#X obj 206 161 - 109;
#X obj 282 21 vsl 15 128 0 127 0 0 empty out-gain-slider empty 0 -9
0 10 -262144 -1 -1 10800 1;
#X obj 282 160 - 109;
#X obj 365 21 vsl 15 128 0 127 0 0 empty feedback-gain-slider empty
0 -9 0 10 -262144 -1 -1 0 1;
#X obj 365 160 - 109;
#X floatatom 225 20 5 0 0 0 - in-gain-display -;
#X floatatom 300 19 5 0 0 0 - out-gain-display -;
#X floatatom 383 19 5 0 0 0 - feedback-gain-display -;
#X text 205 2 In Gain;
#X text 281 1 Out Gain;
#X text 364 1 Feedback Gain;
#X obj 252 64 + 109;
#X msg 206 187 \; control-bus in-gain \$1 \; in-gain-display set \$1
;
#X msg 282 224 \; control-bus out-gain \$1 \; out-gain-display set
\$1;
#X msg 365 259 \; control-bus feedback-gain \$1 \; feedback-gain-display
set \$1;
#X msg 238 306 \; control-bus in-gain \$1 \; in-gain-slider set \$2
;
#X msg 316 352 \; control-bus out-gain \$1 \; out-gain-slider set \$2
;
#X msg 398 398 \; control-bus feedback-gain \$1 \; feedback-gain-slider
set \$2;
#X obj 228 89 pack;
#X obj 225 40 t f f;
#X obj 327 64 + 109;
#X obj 303 89 pack;
#X obj 300 40 t f f;
#X obj 410 65 + 109;
#X obj 386 90 pack;
#X obj 383 41 t f f;
#X text 14 56 DSP on/off;
#X obj 82 56 tgl 15 0 empty empty empty 17 7 0 10 -262144 -1 -1 1 1
;
#X msg 82 90 \; pd dsp \$1;
#X obj 477 9 loadbang;
#X msg 473 35 1;
#X text 3 36 comment;
#X obj 67 244 loadbang;
#X msg 67 272 \; control-bus 1-poll-num-divs;
#X obj 66 362 r control-bus;
#X obj 66 385 route 1-num-divs;
#X obj 26 474 *;
#X obj 26 505 +;
#X obj 0 422 f 1;
#X obj 26 552 abstractions/timed-record-divisions 1 24;
#X floatatom 103 439 5 0 0 0 - - -;
#X obj 32 177 t b b;
#X connect 2 0 47 1;
#X connect 3 0 46 1;
#X connect 6 0 50 0;
#X connect 8 0 9 0;
#X connect 9 0 21 0;
#X connect 10 0 11 0;
#X connect 11 0 22 0;
#X connect 12 0 13 0;
#X connect 13 0 23 0;
#X connect 14 0 28 0;
#X connect 15 0 31 0;
#X connect 16 0 34 0;
#X connect 20 0 27 1;
#X connect 27 0 24 0;
#X connect 28 0 27 0;
#X connect 28 1 20 0;
#X connect 29 0 30 1;
#X connect 30 0 25 0;
#X connect 31 0 30 0;
#X connect 31 1 29 0;
#X connect 32 0 33 1;
#X connect 33 0 26 0;
#X connect 34 0 33 0;
#X connect 34 1 32 0;
#X connect 36 0 37 0;
#X connect 38 0 39 0;
#X connect 39 0 2 0;
#X connect 41 0 42 0;
#X connect 43 0 44 0;
#X connect 44 0 45 1;
#X connect 44 0 49 0;
#X connect 45 0 46 0;
#X connect 46 0 48 1;
#X connect 47 0 45 0;
#X connect 50 0 48 0;
#X connect 50 1 47 0;
#X coords 0 -1 1 1 450 160 2 0 0;
#X restore 357 -6 pd controls;
#X obj 286 244 tgl 15 0 empty empty empty 17 7 0 10 -262144 -1 -1 0
1;
#X obj 370 248 tgl 15 0 empty empty empty 17 7 0 10 -262144 -1 -1 0
1;
#N canvas 565 287 450 300 same-starting-place 0;
#N canvas 369 400 296 143 bms 0;
#X obj 202 26 r control-bus;
#X obj 202 47 route tempo;
#X obj 24 29 inlet;
#X obj 108 31 inlet;
#X obj 22 109 outlet;
#X obj 19 75 abstractions/beats-to-ms 24 120;
#X connect 0 0 1 0;
#X connect 1 0 5 2;
#X connect 2 0 5 0;
#X connect 3 0 5 1;
#X connect 5 0 4 0;
#X restore 84 203 pd bms;
#X obj 26 15 r 1-pulse;
#X obj 28 115 sel 0;
#X obj 27 61 gate;
#X obj 94 15 inlet;
#X obj 29 279 s control-bus;
#X obj 28 86 counter 0 24;
#X msg 85 177 1;
#X obj 28 142 t b b;
#X msg 29 249 play \$1 0 1 \$2 100 100;
#X obj 29 225 pack f f;
#X obj 94 36 t f f;
#X msg 121 57 goto 0;
#X msg 24 181 0;
#X connect 0 0 10 1;
#X connect 1 0 3 1;
#X connect 2 0 8 0;
#X connect 3 0 6 0;
#X connect 4 0 11 0;
#X connect 6 0 2 0;
#X connect 7 0 0 0;
#X connect 8 0 13 0;
#X connect 8 1 7 0;
#X connect 9 0 5 0;
#X connect 10 0 9 0;
#X connect 11 0 3 0;
#X connect 11 1 12 0;
#X connect 12 0 6 0;
#X connect 13 0 10 0;
#X restore 370 270 pd same-starting-place;
#X obj 517 248 tgl 15 0 empty empty empty 17 7 0 10 -262144 -1 -1 0
1;
#N canvas 565 287 450 300 same-starting-place-2 0;
#N canvas 369 400 296 143 bms 0;
#X obj 202 26 r control-bus;
#X obj 202 47 route tempo;
#X obj 24 29 inlet;
#X obj 108 31 inlet;
#X obj 22 109 outlet;
#X obj 19 75 abstractions/beats-to-ms 24 120;
#X connect 0 0 1 0;
#X connect 1 0 5 2;
#X connect 2 0 5 0;
#X connect 3 0 5 1;
#X connect 5 0 4 0;
#X restore 84 203 pd bms;
#X obj 27 61 gate;
#X obj 168 13 inlet;
#X obj 29 279 s control-bus;
#X msg 85 177 1;
#X obj 28 142 t b b;
#X msg 29 249 play \$1 0 1 \$2 100 100;
#X obj 29 225 pack f f;
#X obj 168 34 t f f;
#X msg 195 55 goto 0;
#X msg 24 181 0;
#X obj 26 15 r 1-beat-count;
#X obj 36 37 t b;
#X connect 0 0 7 1;
#X connect 1 0 5 0;
#X connect 2 0 8 0;
#X connect 4 0 0 0;
#X connect 5 0 10 0;
#X connect 5 1 4 0;
#X connect 6 0 3 0;
#X connect 7 0 6 0;
#X connect 8 0 1 0;
#X connect 8 1 9 0;
#X connect 10 0 7 0;
#X connect 11 0 12 0;
#X connect 12 0 1 1;
#X restore 517 270 pd same-starting-place-2;
#X obj 671 247 tgl 15 0 empty empty empty 17 7 0 10 -262144 -1 -1 0
1;
#N canvas 565 287 450 300 same-starting-place-3 0;
#N canvas 369 400 296 143 bms 0;
#X obj 202 26 r control-bus;
#X obj 202 47 route tempo;
#X obj 24 29 inlet;
#X obj 108 31 inlet;
#X obj 22 109 outlet;
#X obj 19 75 abstractions/beats-to-ms 24 120;
#X connect 0 0 1 0;
#X connect 1 0 5 2;
#X connect 2 0 5 0;
#X connect 3 0 5 1;
#X connect 5 0 4 0;
#X restore 84 203 pd bms;
#X obj 17 60 gate;
#X obj 168 13 inlet;
#X obj 29 279 s control-bus;
#X msg 85 177 1;
#X obj 28 142 t b b;
#X msg 29 249 play \$1 0 1 \$2 100 100;
#X obj 29 225 pack f f;
#X obj 168 34 t f f;
#X msg 195 55 goto 0;
#X msg 24 181 0;
#X msg 266 113 1;
#X obj 304 143 f 0;
#X obj 274 144 + 0;
#X obj 275 176 ==;
#X obj 26 15 r 1-div-count;
#X obj 24 97 sel 0 12 18;
#X connect 0 0 7 1;
#X connect 1 0 16 0;
#X connect 2 0 8 0;
#X connect 4 0 0 0;
#X connect 5 0 10 0;
#X connect 5 1 4 0;
#X connect 6 0 3 0;
#X connect 7 0 6 0;
#X connect 8 0 1 0;
#X connect 8 1 9 0;
#X connect 10 0 7 0;
#X connect 11 0 13 0;
#X connect 12 0 13 1;
#X connect 13 0 12 0;
#X connect 15 0 1 1;
#X connect 16 0 5 0;
#X connect 16 1 5 0;
#X connect 16 2 5 0;
#X restore 671 269 pd same-starting-place-3;
#N canvas 873 228 401 335 help 0;
#X text 22 15 RECORDING LOOPER;
#X text 20 28 Clock: This must be on for everything to work. The default
tempo is 120 and can be changed using the number box next to the word
"tempo" or tapped in with the button next to "tap in". The default
number of divisions is 24 (don't worry about this for now).;
#X text 21 97 Recording: make sure DSP is on (that means the box next
to it has an X in it). Turn up the in-gain using the slider or number
box. Set the number box under "beats" to how ever many beats you want
to record. Click on the button next to "timed record" to start recording
at the next subdivision (almost immediately) or click on the button
next to "quantize rec" to record starting at the next beat.;
#X text 23 193 To have a click track to play along to \, toggle the
box above "pd metronome" and if the clock and dsp are on \, you should
hear a clave playing on each beat.;
#X text 21 239 To hear what you recorded played every 8 beats \, toggle
8-beat-loop.;
#X text 20 269 To have what is being played in the score be included
with your next recording \, turn up "Feedback Gain".;
#X restore 309 -3 pd help;
#N canvas 611 201 426 360 metronome 0;
#X obj 146 2 table metro-clav 10;
#X obj 146 42 soundfiler;
#X msg 146 22 read -resize ./sounds/clav.wav metro-clav;
#X floatatom 146 62 5 0 0 0 - - -;
#X obj 30 326 throw~ metro-out;
#X msg 30 243 0 \, \$1 \$2;
#X obj 30 268 Line~;
#X obj 31 94 f;
#X obj 31 116 t f f b;
#X obj 72 150 samplerate~;
#X obj 54 175 /;
#X obj 52 198 * 1000;
#X obj 29 221 pack;
#X obj 20 8 r 1-beat-count;
#X obj 13 67 gate;
#X obj 52 41 inlet;
#X obj 30 299 tabread~ metro-clav;
#X obj 19 39 t b;
#X obj 70 71 bng 15 250 50 0 empty empty empty 17 7 0 10 -262144 -1
-1;
#X obj 268 2 loadbang;
#X connect 1 0 3 0;
#X connect 2 0 1 0;
#X connect 3 0 7 1;
#X connect 5 0 6 0;
#X connect 6 0 16 0;
#X connect 7 0 8 0;
#X connect 8 0 12 0;
#X connect 8 1 10 0;
#X connect 8 2 9 0;
#X connect 9 0 10 1;
#X connect 10 0 11 0;
#X connect 11 0 12 1;
#X connect 12 0 5 0;
#X connect 13 0 17 0;
#X connect 14 0 7 0;
#X connect 15 0 14 0;
#X connect 16 0 4 0;
#X connect 17 0 14 1;
#X connect 18 0 7 0;
#X connect 19 0 2 0;
#X restore 286 271 pd metronome;
#N canvas 838 122 465 557 help-score 0;
#X text 16 14 SCORE: This is where you dictate what is played. The
way you play what was last recorded is you send this message on the
control bus:;
#X msg 19 67 play 0 0 1 1000 100 100;
#X text 17 104 The arguments of the message are:;
#X text 17 118 PHASE: A number between 0 and 1 Where to start playing
in the recording you just did. 0 starts at the beginning \, 0.5 halfway
\, 0.25 a quarter of the way \, and so on.;
#X text 17 157 GAIN: A number between -120 and 0 How loud you play
the recording \, in decibels.;
#X text 17 184 RATE: A number between 0 and 2 (for now). How fast the
recording is played. 1 is normal speed. 2 is twice as hast and 0.5
is half as fast. Higher numbers may be possible in the future. Negative
numbers in the distant future.;
#X text 17 239 LENGTH: The length of the played sound in ms. The length
should be less than the distance between the start of playback and
the end of the soundfile.;
#X text 20 286 ATTACK: How long the attack portion of the playback
is (a ramping from 0 to 1).;
#X text 19 315 DECAY: How long the decay portion of the playback is.
;
#X obj 17 87 s control-bus;
#X obj 19 403 s control-bus;
#X msg 20 383 play 0.25 -3 0.75 1500 100 500;
#X text 16 335 Example that starts 1/4 into the recording \, plays
at -3 dB \, plays at 3/4 speed for 1500 ms with an attack time of 100
and decay of 500;
#X text 17 436 Currently only 8 notes of polyphony (8 recordings can
be played at the same time) \, can be increased easily.;
#X connect 1 0 9 0;
#X connect 11 0 10 0;
#X restore 40 221 pd help-score;
#X text 86 -2 Tap In;
#X msg 44 314 \; control-bus rec-start;
#X msg 44 347 \; control-bus rec-stop;
#X obj 169 73 loadbang;
#X msg 167 96 120;
#X obj 43 152 abstractions/master-clock 1 24 120;
#X obj 308 176 r control-bus;
#X obj 308 200 print;
#X msg 477 174 \; control-bus poll-tempo;
#X obj 192 334 bng 15 250 50 0 empty empty empty 17 7 0 10 -262144
-1 -1;
#X obj 459 354 scores/random-tempo-generator 1;
#X obj 459 329 tgl 15 0 empty empty empty 17 7 0 10 -262144 -1 -1 0
1;
#X text 479 327 <-- toggle here;
#X obj 191 358 abstractions/timed-record-divisions 192;
#X obj 66 66 s 1-tempo-recv;
#X text 43 293 Basic recording;
#X floatatom 404 328 5 0 0 0 - - -;
#X text 199 291 Record for specific number of divisions (or use interface
above).;
#X connect 0 0 29 0;
#X connect 1 0 2 0;
#X connect 1 0 29 2;
#X connect 2 0 3 0;
#X connect 6 0 7 0;
#X connect 8 0 9 0;
#X connect 10 0 12 0;
#X connect 11 0 10 0;
#X connect 12 0 38 0;
#X connect 14 0 22 0;
#X connect 15 0 16 0;
#X connect 17 0 18 0;
#X connect 19 0 20 0;
#X connect 27 0 28 0;
#X connect 28 0 38 0;
#X connect 30 0 31 0;
#X connect 33 0 37 0;
#X connect 35 0 34 0;
#X connect 40 0 37 1;
