#N canvas 119 22 1141 505 10;
#X obj 60 28 bng 15 250 50 0 empty empty empty 17 7 0 10 -262144 -1
-1;
#X obj 58 78 print;
#X floatatom 273 13 5 0 0 0 - - -;
#X obj 271 70 print;
#X obj 273 35 zl group;
#X msg 333 7 2;
#X floatatom 189 19 5 0 0 0 - - -;
#X obj 60 49 abstractions/tap-tempo;
#X floatatom 121 128 5 0 0 0 - - -;
#X floatatom 119 74 5 0 0 0 - - -;
#X obj 122 100 abstractions/ms2bpm;
#X obj 402 100 bng 15 250 50 0 empty empty empty 17 7 0 10 -262144
-1 -1;
#X obj 464 131 print div-count;
#X obj 570 129 print bar-count;
#X obj 399 19 tgl 15 0 empty empty empty 17 7 0 10 -262144 -1 -1 0
1;
#X obj 694 84 print mess;
#X msg 678 16 yeah;
#X floatatom 547 13 5 0 0 0 - - -;
#X obj 403 51 abstractions/master-clock 1 24 120;
#X obj 693 49 abstractions/quantizer 1-div-count;
#X floatatom 799 19 5 0 0 0 - - -;
#X floatatom 907 14 5 0 0 0 - - -;
#X msg 483 154 this is soo stupid;
#X obj 482 220 print DUMM;
#X obj 486 179 add2_comma;
#X obj 300 216 makenote 100 10;
#X obj 300 250 noteout 10;
#X obj 295 94 r 1-div-count;
#X obj 737 135 makenote 100 10;
#X obj 735 208 noteout 10;
#X msg 720 14 57;
#X obj 782 302 prepend set;
#X obj 498 92 gate;
#X obj 465 79 tgl 15 0 empty empty empty 17 7 0 10 -262144 -1 -1 0
1;
#X obj 596 96 gate;
#X obj 563 83 tgl 15 0 empty empty empty 17 7 0 10 -262144 -1 -1 0
1;
#X obj 761 356 makenote 100 10;
#X obj 761 377 noteout 10;
#X msg 824 211 12 57;
#X msg 794 332 -2 57;
#X obj 295 120 sel 0 6 12 18;
#X msg 300 182 62;
#X msg 333 180 60;
#X obj 786 266 abstractions/quant-delay 1-div-count 24;
#X obj 727 315 unpack;
#X floatatom 678 333 5 0 0 0 - - -;
#X connect 0 0 7 0;
#X connect 2 0 4 0;
#X connect 4 0 3 0;
#X connect 5 0 4 1;
#X connect 6 0 7 1;
#X connect 7 0 1 0;
#X connect 9 0 10 0;
#X connect 10 0 8 0;
#X connect 14 0 18 0;
#X connect 16 0 19 0;
#X connect 17 0 18 2;
#X connect 18 0 11 0;
#X connect 18 1 32 1;
#X connect 18 2 34 1;
#X connect 19 0 15 0;
#X connect 19 0 28 0;
#X connect 20 0 19 1;
#X connect 21 0 19 2;
#X connect 22 0 24 0;
#X connect 24 0 23 0;
#X connect 25 0 26 0;
#X connect 25 1 26 1;
#X connect 27 0 40 0;
#X connect 28 0 29 0;
#X connect 28 1 29 1;
#X connect 30 0 19 0;
#X connect 31 0 39 0;
#X connect 32 0 12 0;
#X connect 33 0 32 0;
#X connect 34 0 13 0;
#X connect 35 0 34 0;
#X connect 36 0 37 0;
#X connect 36 1 37 1;
#X connect 38 0 43 0;
#X connect 40 0 41 0;
#X connect 40 1 42 0;
#X connect 40 2 41 0;
#X connect 40 3 42 0;
#X connect 41 0 25 0;
#X connect 42 0 25 0;
#X connect 43 0 31 0;
#X connect 43 0 44 0;
#X connect 44 0 45 0;
#X connect 44 1 36 0;
