#N canvas 450 25 625 565 10;
#X obj 85 261 f;
#X obj 116 97 inlet;
#X obj 14 329 -;
#X obj 111 190 t f f;
#X obj 138 214 sel 1;
#X obj 15 189 t f f;
#X obj 14 238 gate;
#N canvas 741 116 454 476 8th-notes 0;
#X obj 43 126 gate;
#X obj 69 430 s control-bus;
#X obj 47 185 sel 0 12;
#X obj 37 75 >= 0;
#X obj 37 106 &&;
#X obj 39 40 t f f;
#X obj 76 73 < 16;
#X obj 177 10 inlet;
#X msg 45 214 4;
#X text 82 213 4 divisions of length for staccato;
#X msg 69 406 play \$2 0 1 \$1 10 100;
#X obj 69 294 t f b;
#X obj 69 380 pack f f;
#X obj 113 349 / 4;
#X obj 37 12 r \$0-beat-count;
#X obj 135 71 r \$1-div-count;
#X obj 66 268 rtg-bms;
#X obj 110 322 ../abstractions/simple-counter-up 0 4;
#X obj 276 8 inlet;
#X connect 0 0 2 0;
#X connect 2 0 8 0;
#X connect 2 1 8 0;
#X connect 3 0 4 0;
#X connect 4 0 0 0;
#X connect 5 0 3 0;
#X connect 5 1 6 0;
#X connect 6 0 4 1;
#X connect 7 0 0 0;
#X connect 8 0 16 1;
#X connect 10 0 1 0;
#X connect 11 0 12 0;
#X connect 11 1 17 0;
#X connect 12 0 10 0;
#X connect 13 0 12 1;
#X connect 14 0 5 0;
#X connect 15 0 0 1;
#X connect 16 0 11 0;
#X connect 17 0 13 0;
#X connect 18 0 17 1;
#X restore 120 480 pd 8th-notes;
#X obj 68 287 + 1;
#X msg 235 512 1;
#X obj 62 392 sel 0;
#X msg 120 455 0;
#X text 32 508 note: length short for staccato;
#X obj 174 380 gate;
#X obj 221 223 t f f f f;
#X obj 15 97 r \$1-beat-count;
#X obj 14 356 s \$0-beat-count;
#X obj 252 381 r \$0-beat-count;
#X obj 251 467 sel 15;
#X obj 97 124 t f f f f b;
#X obj 282 405 outlet;
#X obj 23 418 t b b;
#X obj 23 480 s \$1-tempo-recv;
#X text 14 7 First argument is the "number" of the tempo clock this
score follows. Second argument is the tempo we revert to when stopping.
;
#X text 13 51 Start by recording a c# for two beats as described in
"pd help" of the parent patch. The activate this score by toggling
it in the parent patch.;
#X obj 23 449 f \$2;
#X obj 224 279 rtg-tempo-change \$0-beat-count 1 0 1.25;
#X obj 473 110 inlet;
#X text 527 109 master-tempo;
#X obj 473 146 t f f f f;
#X obj 224 299 rtg-tempo-change \$0-beat-count 1 4 1.66667;
#X obj 223 318 rtg-tempo-change \$0-beat-count 1 10 0.416667;
#X obj 223 340 rtg-tempo-change \$0-beat-count 1 13 0.833333;
#X connect 0 0 8 0;
#X connect 1 0 19 0;
#X connect 2 0 16 0;
#X connect 3 0 6 0;
#X connect 3 1 4 0;
#X connect 4 0 0 0;
#X connect 5 0 6 1;
#X connect 5 1 0 1;
#X connect 6 0 2 0;
#X connect 8 0 2 1;
#X connect 9 0 13 1;
#X connect 10 0 21 0;
#X connect 11 0 7 0;
#X connect 13 0 3 0;
#X connect 14 0 26 0;
#X connect 14 1 30 0;
#X connect 14 2 31 0;
#X connect 14 3 32 0;
#X connect 15 0 5 0;
#X connect 17 0 18 0;
#X connect 17 0 20 0;
#X connect 18 0 9 0;
#X connect 19 0 10 0;
#X connect 19 1 3 0;
#X connect 19 2 13 0;
#X connect 19 3 14 0;
#X connect 19 4 7 1;
#X connect 21 0 25 0;
#X connect 21 1 11 0;
#X connect 25 0 22 0;
#X connect 27 0 29 0;
#X connect 29 0 26 1;
#X connect 29 1 30 1;
#X connect 29 2 31 1;
#X connect 29 3 32 1;
