#N canvas 484 22 634 670 10;
#X obj 86 -12 f;
#X obj 117 -176 inlet;
#X obj 15 56 -;
#X obj 112 -83 t f f;
#X obj 139 -59 sel 1;
#X obj 16 -84 t f f;
#X obj 15 -35 gate;
#N canvas 717 60 536 509 8th-notes 0;
#X obj 43 126 gate;
#X obj 43 472 s control-bus;
#X obj 43 147 sel 0 12;
#X obj 37 75 >= 0;
#X obj 37 106 &&;
#X obj 39 40 t f f;
#X obj 76 73 < 16;
#X obj 177 10 inlet;
#X obj 43 422 pack f f;
#X obj 37 12 r \$0-beat-count;
#X obj 135 71 r \$1-div-count;
#X obj 276 8 inlet;
#X obj 43 191 ../abstractions/simple-counter-up 0 128;
#X text 284 175 banging to reset;
#X obj 43 318 ../abstractions/sg-trigger;
#X obj 43 353 ../abstractions/segment-cutter 24;
#X obj 68 242 f 12;
#X text 106 241 segment size 12 divs (8th note at 24 divs/beat);
#X text 251 322 mode is to wrap segment numbers (loop around);
#X obj 43 212 t f b b;
#X obj 43 377 unpack;
#X text 215 396 shortened for stacatto;
#X msg 43 448 play \$1 0 1 \$2 10 100;
#X floatatom 125 147 5 0 0 0 - - -;
#X floatatom 120 225 5 0 0 0 - - -;
#X floatatom 125 430 5 0 0 0 - - -;
#X obj 224 323 f 2;
#X obj 153 376 bng 15 250 50 0 empty empty empty 17 7 0 10 -262144
-1 -1;
#X floatatom 324 291 5 0 0 0 - - -;
#X obj 378 7 inlet;
#X text 420 11 master-tempo;
#X obj 431 54 inlet;
#X text 433 74 length-factor;
#X obj 76 398 * 1;
#X connect 0 0 2 0;
#X connect 0 0 23 0;
#X connect 2 0 12 0;
#X connect 2 1 12 0;
#X connect 3 0 4 0;
#X connect 4 0 0 0;
#X connect 5 0 3 0;
#X connect 5 1 6 0;
#X connect 6 0 4 1;
#X connect 7 0 0 0;
#X connect 8 0 22 0;
#X connect 9 0 5 0;
#X connect 10 0 0 1;
#X connect 11 0 12 1;
#X connect 12 0 19 0;
#X connect 12 0 24 0;
#X connect 14 0 15 0;
#X connect 14 1 15 1;
#X connect 14 2 15 2;
#X connect 15 0 20 0;
#X connect 15 0 27 0;
#X connect 16 0 14 1;
#X connect 19 0 14 0;
#X connect 19 1 16 0;
#X connect 19 2 26 0;
#X connect 20 0 8 0;
#X connect 20 0 25 0;
#X connect 20 1 33 0;
#X connect 22 0 1 0;
#X connect 26 0 15 4;
#X connect 28 0 26 1;
#X connect 29 0 15 3;
#X connect 31 0 33 1;
#X connect 33 0 8 1;
#X restore 121 207 pd 8th-notes;
#X obj 69 14 + 1;
#X msg 236 239 1;
#X obj 63 119 sel 0;
#X msg 121 182 0;
#X text 33 235 note: length short for staccato;
#X obj 175 107 gate;
#X obj 222 -50 t f f f f;
#X obj 16 -176 r \$1-beat-count;
#X obj 15 83 s \$0-beat-count;
#X obj 253 108 r \$0-beat-count;
#X obj 252 194 sel 15;
#X obj 98 -149 t f f f f b;
#X obj 283 132 outlet;
#X obj 24 145 t b b;
#X obj 24 207 s \$1-tempo-recv;
#X text 15 -266 First argument is the "number" of the tempo clock this
score follows. Second argument is the tempo we revert to when stopping.
;
#X text 14 -222 Start by recording a c# for two beats as described
in "pd help" of the parent patch. The activate this score by toggling
it in the parent patch.;
#X obj 24 176 f \$2;
#X obj 225 6 rtg-tempo-change \$0-beat-count 1 0 1.25;
#X obj 239 -176 inlet;
#X text 285 -178 master-tempo;
#X obj 225 26 rtg-tempo-change \$0-beat-count 1 4 1.66667;
#X obj 224 45 rtg-tempo-change \$0-beat-count 1 10 0.416667;
#X obj 224 67 rtg-tempo-change \$0-beat-count 1 13 0.833333;
#X obj 239 -140 t f f f f f;
#X obj 515 -168 inlet;
#X text 509 -143 length-scalar (default 1);
#X obj 386 -177 inlet;
#X text 390 -192 tempo-of-original;
#X connect 0 0 8 0;
#X connect 1 0 19 0;
#X connect 2 0 16 0;
#X connect 3 0 6 0;
#X connect 3 1 4 0;
#X connect 4 0 0 0;
#X connect 5 0 6 1;
#X connect 5 1 0 1;
#X connect 6 0 2 0;
#X connect 8 0 2 1;
#X connect 9 0 13 1;
#X connect 10 0 21 0;
#X connect 11 0 7 0;
#X connect 13 0 3 0;
#X connect 14 0 26 0;
#X connect 14 1 29 0;
#X connect 14 2 30 0;
#X connect 14 3 31 0;
#X connect 15 0 5 0;
#X connect 17 0 18 0;
#X connect 17 0 20 0;
#X connect 18 0 9 0;
#X connect 19 0 10 0;
#X connect 19 1 3 0;
#X connect 19 2 13 0;
#X connect 19 3 14 0;
#X connect 19 4 7 1;
#X connect 21 0 25 0;
#X connect 21 1 11 0;
#X connect 25 0 22 0;
#X connect 27 0 32 0;
#X connect 32 0 26 1;
#X connect 32 1 29 1;
#X connect 32 2 30 1;
#X connect 32 3 31 1;
#X connect 32 4 25 1;
#X connect 33 0 7 3;
#X connect 35 0 7 2;
