#N canvas 0 22 285 283 10;
#X obj 28 102 gate;
#X obj 82 62 r 1-div-count;
#X obj 26 221 s control-bus;
#X msg 26 197 play 0 0 1 \$1 10 100;
#X obj 28 122 sel 0 12;
#X msg 26 151 13;
#X obj 23 22 r \$1;
#X obj 23 61 == \$2;
#X text 63 150 13 divisions of length for legato;
#X obj 25 175 rtg-bms;
#X connect 0 0 4 0;
#X connect 1 0 0 1;
#X connect 3 0 2 0;
#X connect 4 0 5 0;
#X connect 4 1 5 0;
#X connect 5 0 9 1;
#X connect 6 0 7 0;
#X connect 7 0 0 0;
#X connect 9 0 3 0;
