#N canvas 252 649 616 524 10;
#X obj 55 111 gate;
#X obj 53 168 sel 0;
#X obj 244 77 inlet;
#X obj 52 196 gate;
#X obj 367 111 inlet;
#X obj 120 337 * 1;
#X text 249 36 toggle (on/off);
#X text 378 89 tempo to multiply by;
#X obj 55 22 r \$1;
#X obj 93 85 r \$2-div-count;
#X obj 48 419 s \$2-tempo-recv;
#X obj 86 279 f \$4;
#X obj 56 85 == \$3;
#X connect 0 0 1 0;
#X connect 1 0 3 1;
#X connect 2 0 3 0;
#X connect 3 0 11 0;
#X connect 4 0 5 1;
#X connect 5 0 10 0;
#X connect 8 0 12 0;
#X connect 9 0 0 1;
#X connect 11 0 5 0;
#X connect 12 0 0 0;
