#N canvas 0 22 306 178 10;
#X text 16 6 a beats-to-ms setup for random tempo generator;
#X obj 207 34 r control-bus;
#X obj 207 55 route tempo;
#X obj 29 37 inlet;
#X obj 113 39 inlet;
#X obj 27 117 outlet;
#X obj 24 83 ../abstractions/beats-to-ms 24 120;
#X connect 1 0 2 0;
#X connect 2 0 6 2;
#X connect 3 0 6 0;
#X connect 4 0 6 1;
#X connect 6 0 5 0;
